<svg xmlns="http://www.w3.org/2000/svg" width="160" height="160" viewBox="0 0 160 160" fill="none">
  <path opacity="0.4" d="M75.8086 12.4449C78.3985 10.9341 81.601 10.9341 84.1909 12.4449L135.873 42.5927C138.428 44.0834 140 46.8192 140 49.7776V110.222C140 113.181 138.428 115.917 135.873 117.407L84.1909 147.555C81.601 149.066 78.3985 149.066 75.8086 147.555L24.1265 117.407C21.5711 115.917 19.9998 113.181 19.9998 110.222V49.7776C19.9998 46.8192 21.5711 44.0834 24.1265 42.5927L75.8086 12.4449Z" fill="url(#paint0_linear_1341_13185)"/>
  <g opacity="0.4">
    <g filter="url(#filter0_i_1341_13185)">
      <path d="M78.1994 35.2184C79.3114 34.5678 80.688 34.5678 81.8 35.2184L117.402 56.0491C118.494 56.6886 119.166 57.8598 119.166 59.126V100.87C119.166 102.136 118.494 103.308 117.402 103.947L81.8 124.778C80.688 125.428 79.3114 125.428 78.1994 124.778L42.5978 103.947C41.5049 103.308 40.8333 102.136 40.8333 100.87V59.126C40.8333 57.8598 41.5049 56.6886 42.5978 56.0491L78.1994 35.2184Z" fill="url(#paint1_radial_1341_13185)"/>
      <path d="M78.1994 35.2184C79.3114 34.5678 80.688 34.5678 81.8 35.2184L117.402 56.0491C118.494 56.6886 119.166 57.8598 119.166 59.126V100.87C119.166 102.136 118.494 103.308 117.402 103.947L81.8 124.778C80.688 125.428 79.3114 125.428 78.1994 124.778L42.5978 103.947C41.5049 103.308 40.8333 102.136 40.8333 100.87V59.126C40.8333 57.8598 41.5049 56.6886 42.5978 56.0491L78.1994 35.2184Z" fill="url(#paint2_radial_1341_13185)" fill-opacity="0.29"/>
      <path d="M78.1994 35.2184C79.3114 34.5678 80.688 34.5678 81.8 35.2184L117.402 56.0491C118.494 56.6886 119.166 57.8598 119.166 59.126V100.87C119.166 102.136 118.494 103.308 117.402 103.947L81.8 124.778C80.688 125.428 79.3114 125.428 78.1994 124.778L42.5978 103.947C41.5049 103.308 40.8333 102.136 40.8333 100.87V59.126C40.8333 57.8598 41.5049 56.6886 42.5978 56.0491L78.1994 35.2184Z" fill="url(#paint3_linear_1341_13185)" fill-opacity="0.2" style="mix-blend-mode:multiply"/>
    </g>
    <path d="M83.2402 32.7569L81.8 35.2184L83.2402 32.7569C81.2386 31.5858 78.7608 31.5858 76.7592 32.7569L78.1994 35.2184L76.7592 32.7569L41.1576 53.5876C39.1904 54.7386 37.9814 56.8468 37.9814 59.126V100.87C37.9814 103.149 39.1904 105.258 41.1576 106.409L41.1576 106.409L76.7592 127.239C78.7608 128.41 81.2386 128.41 83.2402 127.239L118.842 106.409C120.809 105.258 122.018 103.149 122.018 100.87V59.126C122.018 56.8468 120.809 54.7387 118.842 53.5876L83.2402 32.7569Z" stroke="url(#paint4_linear_1341_13185)" stroke-width="5.70374"/>
  </g>
  <path d="M85.6465 29.4739C82.1557 27.4428 77.8431 27.4428 74.3522 29.4739L39.3322 49.8491C35.8762 51.8599 33.7501 55.5567 33.7501 59.5551V100.45C33.7501 104.449 35.8762 108.146 39.3322 110.156L74.3522 130.532C77.8431 132.563 82.1557 132.563 85.6465 130.532L120.666 110.156C124.122 108.146 126.249 104.449 126.249 100.45V59.5551C126.249 55.5567 124.122 51.8599 120.666 49.8491L85.6465 29.4739Z" stroke="url(#paint5_linear_1341_13185)" stroke-width="0.831796"/>
  <defs>
    <filter id="filter0_i_1341_13185" x="35.1294" y="29.0269" width="89.7405" height="101.943" filterUnits="userSpaceOnUse" color-interpolation-filters="sRGB">
      <feFlood flood-opacity="0" result="BackgroundImageFix"/>
      <feBlend mode="normal" in="SourceGraphic" in2="BackgroundImageFix" result="shape"/>
      <feColorMatrix in="SourceAlpha" type="matrix" values="0 0 0 0 0 0 0 0 0 0 0 0 0 0 0 0 0 0 127 0" result="hardAlpha"/>
      <feOffset/>
      <feGaussianBlur stdDeviation="16.0418"/>
      <feComposite in2="hardAlpha" operator="arithmetic" k2="-1" k3="1"/>
      <feColorMatrix type="matrix" values="0 0 0 0 0.584314 0 0 0 0 0 0 0 0 0 0.423529 0 0 0 0.97 0"/>
      <feBlend mode="normal" in2="shape" result="effect1_innerShadow_1341_13185"/>
    </filter>
    <linearGradient id="paint0_linear_1341_13185" x1="42.9164" y1="19.5833" x2="97.0831" y2="142.917" gradientUnits="userSpaceOnUse">
      <stop stop-color="white" stop-opacity="0.8"/>
      <stop offset="1" stop-color="white"/>
    </linearGradient>
    <radialGradient id="paint1_radial_1341_13185" cx="0" cy="0" r="1" gradientUnits="userSpaceOnUse" gradientTransform="translate(79.9997 82.0261) rotate(90) scale(74.5528 64.4626)">
      <stop stop-color="white"/>
      <stop offset="1" stop-color="white"/>
    </radialGradient>
    <radialGradient id="paint2_radial_1341_13185" cx="0" cy="0" r="1" gradientUnits="userSpaceOnUse" gradientTransform="translate(61.6955 64.5384) rotate(-48.4041) scale(46.1528 24.3322)">
      <stop stop-color="white"/>
      <stop offset="1" stop-color="white" stop-opacity="0"/>
    </radialGradient>
    <linearGradient id="paint3_linear_1341_13185" x1="79.9997" y1="34.165" x2="79.9997" y2="129.887" gradientUnits="userSpaceOnUse">
      <stop stop-color="white"/>
      <stop offset="0.0001" stop-color="white" stop-opacity="0"/>
      <stop offset="1" stop-color="white"/>
    </linearGradient>
    <linearGradient id="paint4_linear_1341_13185" x1="79.9997" y1="34.165" x2="79.9997" y2="129.887" gradientUnits="userSpaceOnUse">
      <stop stop-color="white"/>
      <stop offset="1" stop-color="white" stop-opacity="0.5"/>
    </linearGradient>
    <linearGradient id="paint5_linear_1341_13185" x1="70.8327" y1="26.6694" x2="89.166" y2="135.419" gradientUnits="userSpaceOnUse">
      <stop stop-color="white" stop-opacity="0.6"/>
      <stop offset="1" stop-color="white"/>
    </linearGradient>
  </defs>
</svg>