<svg xmlns="http://www.w3.org/2000/svg" width="216" height="216" viewBox="0 0 216 216" fill="none">
  <path opacity="0.7" d="M103.729 29.829C106.726 28.0809 110.431 28.0809 113.428 29.829L173.232 64.7144C176.189 66.4393 178.007 69.605 178.007 73.0283V142.972C178.007 146.395 176.189 149.561 173.232 151.286L113.428 186.171C110.431 187.919 106.726 187.919 103.729 186.171L43.9253 151.286C40.9683 149.561 39.15 146.395 39.15 142.972V73.0284C39.15 69.605 40.9683 66.4393 43.9253 64.7144L103.729 29.829Z" fill="url(#paint0_linear_1600_26410)"/>
  <g opacity="0.4">
    <g filter="url(#filter0_i_1600_26410)">
      <path d="M106.148 56.3839C107.649 55.5056 109.508 55.5056 111.009 56.3839L151.517 80.0858C152.993 80.9491 153.9 82.5302 153.9 84.2396V131.755C153.9 133.464 152.993 135.046 151.517 135.909L111.009 159.611C109.508 160.489 107.649 160.489 106.148 159.611L65.6394 135.909C64.164 135.046 63.2573 133.464 63.2573 131.755V84.2396C63.2573 82.5302 64.164 80.9491 65.6394 80.0858L106.148 56.3839Z" fill="url(#paint1_radial_1600_26410)"/>
      <path d="M106.148 56.3839C107.649 55.5056 109.508 55.5056 111.009 56.3839L151.517 80.0858C152.993 80.9491 153.9 82.5302 153.9 84.2396V131.755C153.9 133.464 152.993 135.046 151.517 135.909L111.009 159.611C109.508 160.489 107.649 160.489 106.148 159.611L65.6394 135.909C64.164 135.046 63.2573 133.464 63.2573 131.755V84.2396C63.2573 82.5302 64.164 80.9491 65.6394 80.0858L106.148 56.3839Z" fill="url(#paint2_radial_1600_26410)" fill-opacity="0.29"/>
      <path d="M106.148 56.3839C107.649 55.5056 109.508 55.5056 111.009 56.3839L151.517 80.0858C152.993 80.9491 153.9 82.5302 153.9 84.2396V131.755C153.9 133.464 152.993 135.046 151.517 135.909L111.009 159.611C109.508 160.489 107.649 160.489 106.148 159.611L65.6394 135.909C64.164 135.046 63.2573 133.464 63.2573 131.755V84.2396C63.2573 82.5302 64.164 80.9491 65.6394 80.0858L106.148 56.3839Z" fill="url(#paint3_linear_1600_26410)" fill-opacity="0.2" style="mix-blend-mode:multiply"/>
    </g>
    <path d="M112.953 53.0609C110.251 51.4799 106.906 51.4799 104.204 53.0609L63.6951 76.7628C61.0394 78.3167 59.4073 81.1627 59.4073 84.2396V131.755C59.4073 134.832 61.0394 137.678 63.6951 139.232L104.204 162.934C106.906 164.515 110.251 164.515 112.953 162.934L153.462 139.232C156.117 137.678 157.75 134.832 157.75 131.755V84.2396C157.75 81.1626 156.117 78.3167 153.462 76.7628L112.953 53.0609Z" stroke="url(#paint4_linear_1600_26410)" stroke-width="7.70005"/>
  </g>
  <path d="M115.113 49.5342C111.074 47.184 106.083 47.184 102.044 49.5342L61.5208 73.1113C57.5217 75.438 55.0615 79.7158 55.0615 84.3425V131.664C55.0615 136.291 57.5217 140.569 61.5208 142.895L102.044 166.473C106.083 168.823 111.074 168.823 115.113 166.473L155.636 142.895C159.635 140.569 162.095 136.291 162.095 131.664V84.3425C162.095 79.7157 159.635 75.438 155.636 73.1113L115.113 49.5342Z" stroke="url(#paint5_linear_1600_26410)" stroke-width="0.962506"/>
  <defs>
    <filter id="filter0_i_1600_26410" x="55.5572" y="48.0249" width="106.042" height="119.944" filterUnits="userSpaceOnUse" color-interpolation-filters="sRGB">
      <feFlood flood-opacity="0" result="BackgroundImageFix"/>
      <feBlend mode="normal" in="SourceGraphic" in2="BackgroundImageFix" result="shape"/>
      <feColorMatrix in="SourceAlpha" type="matrix" values="0 0 0 0 0 0 0 0 0 0 0 0 0 0 0 0 0 0 127 0" result="hardAlpha"/>
      <feOffset/>
      <feGaussianBlur stdDeviation="21.6564"/>
      <feComposite in2="hardAlpha" operator="arithmetic" k2="-1" k3="1"/>
      <feColorMatrix type="matrix" values="0 0 0 0 0 0 0 0 0 0.234284 0 0 0 0 0.58571 0 0 0 0.97 0"/>
      <feBlend mode="normal" in2="shape" result="effect1_innerShadow_1600_26410"/>
    </filter>
    <linearGradient id="paint0_linear_1600_26410" x1="65.6679" y1="38.0893" x2="128.346" y2="180.804" gradientUnits="userSpaceOnUse">
      <stop stop-color="white" stop-opacity="0.8"/>
      <stop offset="1" stop-color="white"/>
    </linearGradient>
    <radialGradient id="paint1_radial_1600_26410" cx="0" cy="0" r="1" gradientUnits="userSpaceOnUse" gradientTransform="translate(108.578 110.344) rotate(90) scale(86.2682 74.5924)">
      <stop stop-color="white"/>
      <stop offset="1" stop-color="#38A49D"/>
    </radialGradient>
    <radialGradient id="paint2_radial_1600_26410" cx="0" cy="0" r="1" gradientUnits="userSpaceOnUse" gradientTransform="translate(87.3979 90.1082) rotate(-48.4041) scale(53.4054 28.1558)">
      <stop stop-color="#38A49D"/>
      <stop offset="1" stop-color="#38A49D" stop-opacity="0"/>
    </radialGradient>
    <linearGradient id="paint3_linear_1600_26410" x1="108.578" y1="54.9619" x2="108.578" y2="165.726" gradientUnits="userSpaceOnUse">
      <stop stop-color="white"/>
      <stop offset="0.0001" stop-color="white" stop-opacity="0"/>
      <stop offset="1" stop-color="white"/>
    </linearGradient>
    <linearGradient id="paint4_linear_1600_26410" x1="108.578" y1="54.9619" x2="108.578" y2="165.726" gradientUnits="userSpaceOnUse">
      <stop stop-color="white"/>
      <stop offset="1" stop-color="white" stop-opacity="0.5"/>
    </linearGradient>
    <linearGradient id="paint5_linear_1600_26410" x1="97.9713" y1="46.2891" x2="119.186" y2="172.128" gradientUnits="userSpaceOnUse">
      <stop stop-color="white" stop-opacity="0.6"/>
      <stop offset="1" stop-color="white"/>
    </linearGradient>
  </defs>
</svg>