
<svg width="32" height="34" viewBox="0 0 32 34" fill="none" xmlns="http://www.w3.org/2000/svg">
<g filter="url(#filter0_d_962_37425)">
<path opacity="0.4" d="M15.2908 7.36782C15.6608 7.152 16.1183 7.15199 16.4883 7.36782L23.8556 11.6654C24.2206 11.8783 24.4451 12.2692 24.4451 12.6918V21.3083C24.4451 21.7309 24.2206 22.1217 23.8556 22.3347L16.4883 26.6323C16.1183 26.8481 15.6608 26.8481 15.2908 26.6323L7.92352 22.3347C7.55846 22.1217 7.33398 21.7309 7.33398 21.3083V12.6918C7.33398 12.2692 7.55846 11.8783 7.92352 11.6654L15.2908 7.36782Z" fill="url(#paint0_linear_962_37425)"/>
<g opacity="0.2">
<path d="M15.3494 23.7695L15.5895 23.3592L15.3494 23.7695C15.683 23.9647 16.096 23.9647 16.4296 23.7695L21.4203 20.8494C21.7482 20.6575 21.9497 20.3062 21.9497 19.9263V14.0723C21.9497 13.6925 21.7482 13.3411 21.4203 13.1493L16.4296 10.2292C16.096 10.034 15.683 10.034 15.3494 10.2292L10.3587 13.1493C10.0309 13.3411 9.82938 13.6925 9.82938 14.0723V19.9263C9.82938 20.3062 10.0309 20.6575 10.3587 20.8494L15.3494 23.7695Z" fill="url(#paint1_radial_962_37425)"/>
<path d="M15.3494 23.7695L15.5895 23.3592L15.3494 23.7695C15.683 23.9647 16.096 23.9647 16.4296 23.7695L21.4203 20.8494C21.7482 20.6575 21.9497 20.3062 21.9497 19.9263V14.0723C21.9497 13.6925 21.7482 13.3411 21.4203 13.1493L16.4296 10.2292C16.096 10.034 15.683 10.034 15.3494 10.2292L10.3587 13.1493C10.0309 13.3411 9.82938 13.6925 9.82938 14.0723V19.9263C9.82938 20.3062 10.0309 20.6575 10.3587 20.8494L15.3494 23.7695Z" fill="url(#paint2_radial_962_37425)" fill-opacity="0.29"/>
<path d="M15.3494 23.7695L15.5895 23.3592L15.3494 23.7695C15.683 23.9647 16.096 23.9647 16.4296 23.7695L21.4203 20.8494C21.7482 20.6575 21.9497 20.3062 21.9497 19.9263V14.0723C21.9497 13.6925 21.7482 13.3411 21.4203 13.1493L16.4296 10.2292C16.096 10.034 15.683 10.034 15.3494 10.2292L10.3587 13.1493C10.0309 13.3411 9.82938 13.6925 9.82938 14.0723V19.9263C9.82938 20.3062 10.0309 20.6575 10.3587 20.8494L15.3494 23.7695Z" fill="url(#paint3_linear_962_37425)" fill-opacity="0.2" style="mix-blend-mode:multiply"/>
<path d="M15.3494 23.7695L15.5895 23.3592L15.3494 23.7695C15.683 23.9647 16.096 23.9647 16.4296 23.7695L21.4203 20.8494C21.7482 20.6575 21.9497 20.3062 21.9497 19.9263V14.0723C21.9497 13.6925 21.7482 13.3411 21.4203 13.1493L16.4296 10.2292C16.096 10.034 15.683 10.034 15.3494 10.2292L10.3587 13.1493C10.0309 13.3411 9.82938 13.6925 9.82938 14.0723V19.9263C9.82938 20.3062 10.0309 20.6575 10.3587 20.8494L15.3494 23.7695Z" stroke="url(#paint4_linear_962_37425)" stroke-width="0.950623"/>
</g>
<path d="M15.8155 13.6144C15.8908 13.4619 16.1084 13.4619 16.1837 13.6144L17.1586 15.5898C17.1885 15.6504 17.2463 15.6924 17.3132 15.7021L19.4931 16.0189C19.6615 16.0433 19.7288 16.2503 19.6069 16.3691L18.0295 17.9067C17.9811 17.9538 17.959 18.0218 17.9705 18.0884L18.3428 20.2595C18.3716 20.4272 18.1956 20.5551 18.0449 20.476L16.0952 19.4509C16.0353 19.4194 15.9639 19.4194 15.9041 19.4509L13.9543 20.476C13.8037 20.5551 13.6276 20.4272 13.6564 20.2595L14.0288 18.0884C14.0402 18.0218 14.0181 17.9538 13.9697 17.9067L12.3923 16.3691C12.2704 16.2503 12.3377 16.0433 12.5061 16.0189L14.686 15.7021C14.7529 15.6924 14.8107 15.6504 14.8406 15.5898L15.8155 13.6144Z" fill="white"/>
<path d="M16.6957 9.79614C16.1971 9.50599 15.581 9.50599 15.0823 9.79614L10.0915 12.6998C9.59783 12.9871 9.2941 13.5152 9.2941 14.0864V19.9145C9.2941 20.4857 9.59783 21.0138 10.0915 21.3011L15.0823 24.2048C15.581 24.4949 16.1971 24.4949 16.6957 24.2048L21.6865 21.3011C22.1802 21.0138 22.4839 20.4857 22.4839 19.9145V14.0864C22.4839 13.5152 22.1802 12.9871 21.6865 12.6998L16.6957 9.79614Z" stroke="url(#paint5_linear_962_37425)" stroke-width="0.118828"/>
</g>
<defs>
<filter id="filter0_d_962_37425" x="-0.866713" y="0.399956" width="33.7334" height="33.7334" filterUnits="userSpaceOnUse" color-interpolation-filters="sRGB">
<feFlood flood-opacity="0" result="BackgroundImageFix"/>
<feColorMatrix in="SourceAlpha" type="matrix" values="0 0 0 0 0 0 0 0 0 0 0 0 0 0 0 0 0 0 127 0" result="hardAlpha"/>
<feOffset dy="0.266668"/>
<feGaussianBlur stdDeviation="3.43336"/>
<feComposite in2="hardAlpha" operator="out"/>
<feColorMatrix type="matrix" values="0 0 0 0 0.847865 0 0 0 0 0.899898 0 0 0 0 0.929167 0 0 0 0.18 0"/>
<feBlend mode="screen" in2="BackgroundImageFix" result="effect1_dropShadow_962_37425"/>
<feBlend mode="normal" in="SourceGraphic" in2="effect1_dropShadow_962_37425" result="shape"/>
</filter>
<linearGradient id="paint0_linear_962_37425" x1="10.6017" y1="8.38507" x2="18.3255" y2="25.9715" gradientUnits="userSpaceOnUse">
<stop stop-color="#A683FF" stop-opacity="0.8"/>
<stop offset="1" stop-color="#A683FF"/>
</linearGradient>
<radialGradient id="paint1_radial_962_37425" cx="0" cy="0" r="1" gradientUnits="userSpaceOnUse" gradientTransform="translate(15.8895 17.2885) rotate(90) scale(10.6307 9.19189)">
<stop stop-color="#A683FF"/>
<stop offset="1" stop-color="#A683FF"/>
</radialGradient>
<radialGradient id="paint2_radial_962_37425" cx="0" cy="0" r="1" gradientUnits="userSpaceOnUse" gradientTransform="translate(13.2795 14.7949) rotate(-48.4041) scale(6.58105 3.46958)">
<stop stop-color="#A683FF"/>
<stop offset="1" stop-color="#A683FF" stop-opacity="0"/>
</radialGradient>
<linearGradient id="paint3_linear_962_37425" x1="15.8895" y1="10.4639" x2="15.8895" y2="24.1131" gradientUnits="userSpaceOnUse">
<stop stop-color="#A683FF"/>
<stop offset="0.0001" stop-color="#A683FF" stop-opacity="0"/>
<stop offset="1" stop-color="#A683FF"/>
</linearGradient>
<linearGradient id="paint4_linear_962_37425" x1="15.8895" y1="10.4639" x2="15.8895" y2="24.1131" gradientUnits="userSpaceOnUse">
<stop stop-color="#A683FF"/>
<stop offset="1" stop-color="#A683FF" stop-opacity="0.5"/>
</linearGradient>
<linearGradient id="paint5_linear_962_37425" x1="14.5819" y1="9.39551" x2="17.1961" y2="24.9025" gradientUnits="userSpaceOnUse">
<stop stop-color="#A683FF" stop-opacity="0.6"/>
<stop offset="1" stop-color="#A683FF"/>
</linearGradient>
</defs>
</svg>
