<svg xmlns="http://www.w3.org/2000/svg" width="204" height="207" viewBox="0 0 204 207" fill="none">
  <g filter="url(#filter0_d_1328_10361)">
    <path opacity="0.4" d="M97.8088 27.4449C100.399 25.9341 103.601 25.9341 106.191 27.4449L157.873 57.5927C160.429 59.0834 162 61.8192 162 64.7776V125.222C162 128.181 160.429 130.917 157.873 132.407L106.191 162.555C103.601 164.066 100.399 164.066 97.8088 162.555L46.1268 132.407C43.5714 130.917 42 128.181 42 125.222V64.7776C42 61.8192 43.5714 59.0834 46.1268 57.5927L97.8088 27.4449Z" fill="url(#paint0_linear_1328_10361)"/>
    <g opacity="0.4">
      <g filter="url(#filter1_i_1328_10361)">
        <path d="M100.2 50.2184C101.312 49.5678 102.688 49.5678 103.8 50.2184L139.402 71.0491C140.495 71.6886 141.166 72.8598 141.166 74.126V115.87C141.166 117.136 140.495 118.308 139.402 118.947L103.8 139.778C102.688 140.428 101.312 140.428 100.2 139.778L64.598 118.947C63.5052 118.308 62.8335 117.136 62.8335 115.87V74.126C62.8335 72.8598 63.5052 71.6886 64.598 71.0491L100.2 50.2184Z" fill="url(#paint1_radial_1328_10361)"/>
        <path d="M100.2 50.2184C101.312 49.5678 102.688 49.5678 103.8 50.2184L139.402 71.0491C140.495 71.6886 141.166 72.8598 141.166 74.126V115.87C141.166 117.136 140.495 118.308 139.402 118.947L103.8 139.778C102.688 140.428 101.312 140.428 100.2 139.778L64.598 118.947C63.5052 118.308 62.8335 117.136 62.8335 115.87V74.126C62.8335 72.8598 63.5052 71.6886 64.598 71.0491L100.2 50.2184Z" fill="url(#paint2_radial_1328_10361)" fill-opacity="0.29"/>
        <path d="M100.2 50.2184C101.312 49.5678 102.688 49.5678 103.8 50.2184L139.402 71.0491C140.495 71.6886 141.166 72.8598 141.166 74.126V115.87C141.166 117.136 140.495 118.308 139.402 118.947L103.8 139.778C102.688 140.428 101.312 140.428 100.2 139.778L64.598 118.947C63.5052 118.308 62.8335 117.136 62.8335 115.87V74.126C62.8335 72.8598 63.5052 71.6886 64.598 71.0491L100.2 50.2184Z" fill="url(#paint3_linear_1328_10361)" fill-opacity="0.2" style="mix-blend-mode:multiply"/>
      </g>
      <path d="M105.24 47.7569L103.8 50.2184L105.24 47.7569C103.239 46.5858 100.761 46.5858 98.7594 47.7569L100.2 50.2184L98.7594 47.7569L63.1578 68.5876C61.1906 69.7386 59.9816 71.8468 59.9816 74.126V115.87C59.9816 118.149 61.1906 120.258 63.1578 121.409L63.1578 121.409L98.7594 142.239C100.761 143.41 103.239 143.41 105.24 142.239L140.842 121.409C142.809 120.258 144.018 118.149 144.018 115.87V74.126C144.018 71.8468 142.809 69.7387 140.842 68.5876L105.24 47.7569Z" stroke="url(#paint4_linear_1328_10361)" stroke-width="5.70374"/>
    </g>
    <g filter="url(#filter2_d_1328_10361)">
      <path d="M74.4274 103.039C73.3109 103.039 72.3355 102.842 71.5014 102.446C70.68 102.051 70.0448 101.503 69.5956 100.801C69.1465 100.1 68.9219 99.3025 68.9219 98.4097H72.3869C72.3869 98.9071 72.5666 99.3152 72.9259 99.6341C73.2981 99.9402 73.7986 100.093 74.4274 100.093C74.8509 100.093 75.2102 100.017 75.5054 99.8636C75.8134 99.6978 76.0508 99.481 76.2176 99.2132C76.3845 98.9326 76.4679 98.6201 76.4679 98.2757C76.4679 97.7528 76.2882 97.3192 75.9289 96.9748C75.5696 96.6304 75.0691 96.4583 74.4274 96.4583C74.0809 96.4583 73.7536 96.522 73.4456 96.6496C73.1376 96.7771 72.8746 96.9365 72.6564 97.1279L71.0586 94.5069L75.0241 92.058L74.8509 91.7519H69.5186V88.6909H79.4131V91.7328L74.3311 94.813L72.5216 94.2581C72.8296 94.1561 73.1505 94.086 73.4841 94.0477C73.8306 93.9967 74.1451 93.9712 74.4274 93.9712C75.5439 93.9712 76.5128 94.1434 77.3341 94.4877C78.1683 94.8321 78.81 95.3231 79.2591 95.9608C79.7083 96.5985 79.9329 97.3702 79.9329 98.2757V98.5053C79.9329 99.3854 79.7083 100.17 79.2591 100.858C78.81 101.534 78.1683 102.07 77.3341 102.466C76.5128 102.848 75.5439 103.039 74.4274 103.039Z" fill="white"/>
      <path d="M87.186 103.078C85.877 103.078 84.8054 102.784 83.9712 102.198C83.137 101.611 82.521 100.801 82.1232 99.768C81.7254 98.7221 81.5264 97.5105 81.5264 96.133V95.253C81.5264 93.8117 81.7382 92.5746 82.1617 91.5415C82.5852 90.4956 83.214 89.6921 84.0482 89.1309C84.8952 88.557 85.9411 88.27 87.186 88.27C88.4308 88.27 89.4703 88.557 90.3045 89.1309C91.1515 89.6921 91.7867 90.4956 92.2102 91.5415C92.6337 92.5746 92.8455 93.8117 92.8455 95.253V96.133C92.8455 97.5105 92.6466 98.7221 92.2487 99.768C91.8509 100.801 91.2349 101.611 90.4007 102.198C89.5665 102.784 88.495 103.078 87.186 103.078ZM87.186 99.7871C87.7121 99.7871 88.1292 99.6659 88.4372 99.4236C88.758 99.1685 88.989 98.7413 89.1302 98.1418C89.2714 97.5424 89.342 96.7325 89.342 95.7121C89.342 94.6408 89.265 93.8054 89.111 93.2059C88.9698 92.6065 88.7388 92.1856 88.418 91.9432C88.11 91.6882 87.6993 91.5606 87.186 91.5606C86.6855 91.5606 86.2748 91.6818 85.954 91.9241C85.6331 92.1664 85.3957 92.5873 85.2417 93.1868C85.1005 93.7862 85.03 94.6153 85.03 95.6739C85.03 96.707 85.1005 97.5232 85.2417 98.1227C85.3829 98.7221 85.6139 99.1494 85.9347 99.4045C86.2555 99.6596 86.6726 99.7871 87.186 99.7871Z" fill="white"/>
      <path d="M99.8098 103.078C98.5008 103.078 97.4292 102.784 96.595 102.198C95.7609 101.611 95.1448 100.801 94.747 99.768C94.3492 98.7221 94.1503 97.5105 94.1503 96.133V95.253C94.1503 93.8117 94.362 92.5746 94.7855 91.5415C95.209 90.4956 95.8379 89.6921 96.672 89.1309C97.519 88.557 98.5649 88.27 99.8098 88.27C101.055 88.27 102.094 88.557 102.928 89.1309C103.775 89.6921 104.411 90.4956 104.834 91.5415C105.258 92.5746 105.469 93.8117 105.469 95.253V96.133C105.469 97.5105 105.27 98.7221 104.873 99.768C104.475 100.801 103.859 101.611 103.025 102.198C102.19 102.784 101.119 103.078 99.8098 103.078ZM99.8098 99.7871C100.336 99.7871 100.753 99.6659 101.061 99.4236C101.382 99.1685 101.613 98.7413 101.754 98.1418C101.895 97.5424 101.966 96.7325 101.966 95.7121C101.966 94.6408 101.889 93.8054 101.735 93.2059C101.594 92.6065 101.363 92.1856 101.042 91.9432C100.734 91.6882 100.323 91.5606 99.8098 91.5606C99.3093 91.5606 98.8986 91.6818 98.5778 91.9241C98.2569 92.1664 98.0195 92.5873 97.8655 93.1868C97.7244 93.7862 97.6538 94.6153 97.6538 95.6739C97.6538 96.707 97.7244 97.5232 97.8655 98.1227C98.0067 98.7221 98.2377 99.1494 98.5585 99.4045C98.8794 99.6596 99.2964 99.7871 99.8098 99.7871Z" fill="white"/>
      <path d="M109.587 102.657L114.245 95.2338L114.284 95.5399L109.972 88.6909H113.899L116.305 92.7276H116.805L119.135 88.6909H122.946L118.653 95.5782L118.596 95.2721L123.408 102.657H119.481L116.613 98.0462H116.112L113.398 102.657H109.587Z" fill="white"/>
      <path d="M127.768 98.9453V95.8843H130.078C130.514 95.8843 130.893 95.8014 131.213 95.6356C131.534 95.457 131.784 95.2083 131.964 94.8895C132.144 94.5706 132.234 94.1944 132.234 93.7607C132.234 93.3143 132.144 92.9317 131.964 92.6128C131.784 92.294 131.534 92.0517 131.213 91.8859C130.893 91.72 130.514 91.6371 130.078 91.6371H127.768V88.5761H129.981C131.188 88.5761 132.227 88.7802 133.1 89.1883C133.985 89.5837 134.666 90.1576 135.14 90.9102C135.615 91.6627 135.853 92.5618 135.853 93.6077V93.9138C135.853 94.9469 135.615 95.8397 135.14 96.5922C134.666 97.3447 133.985 97.925 133.1 98.3331C132.227 98.7413 131.188 98.9453 129.981 98.9453H127.768ZM124.572 102.657V88.5761H128.153V102.657H124.572Z" fill="white"/>
    </g>
    <path d="M107.646 44.4739C104.156 42.4428 99.8431 42.4428 96.3522 44.4739L61.3322 64.8491C57.8762 66.8599 55.7501 70.5567 55.7501 74.5551V115.45C55.7501 119.449 57.8762 123.146 61.3322 125.156L96.3522 145.532C99.8431 147.563 104.156 147.563 107.646 145.532L142.666 125.156C146.122 123.146 148.249 119.449 148.249 115.45V74.5551C148.249 70.5567 146.122 66.8599 142.666 64.8491L107.646 44.4739Z" stroke="url(#paint5_linear_1328_10361)" stroke-width="0.831796"/>
  </g>
  <defs>
    <filter id="filter0_d_1328_10361" x="-19.2003" y="-24.6003" width="242.401" height="242.401" filterUnits="userSpaceOnUse" color-interpolation-filters="sRGB">
      <feFlood flood-opacity="0" result="BackgroundImageFix"/>
      <feColorMatrix in="SourceAlpha" type="matrix" values="0 0 0 0 0 0 0 0 0 0 0 0 0 0 0 0 0 0 127 0" result="hardAlpha"/>
      <feOffset dy="1.60001"/>
      <feGaussianBlur stdDeviation="20.6001"/>
      <feComposite in2="hardAlpha" operator="out"/>
      <feColorMatrix type="matrix" values="0 0 0 0 0.847865 0 0 0 0 0.899898 0 0 0 0 0.929167 0 0 0 0.18 0"/>
      <feBlend mode="screen" in2="BackgroundImageFix" result="effect1_dropShadow_1328_10361"/>
      <feBlend mode="normal" in="SourceGraphic" in2="effect1_dropShadow_1328_10361" result="shape"/>
    </filter>
    <filter id="filter1_i_1328_10361" x="57.1299" y="44.0266" width="89.7402" height="101.943" filterUnits="userSpaceOnUse" color-interpolation-filters="sRGB">
      <feFlood flood-opacity="0" result="BackgroundImageFix"/>
      <feBlend mode="normal" in="SourceGraphic" in2="BackgroundImageFix" result="shape"/>
      <feColorMatrix in="SourceAlpha" type="matrix" values="0 0 0 0 0 0 0 0 0 0 0 0 0 0 0 0 0 0 127 0" result="hardAlpha"/>
      <feOffset/>
      <feGaussianBlur stdDeviation="16.0418"/>
      <feComposite in2="hardAlpha" operator="arithmetic" k2="-1" k3="1"/>
      <feColorMatrix type="matrix" values="0 0 0 0 0.584314 0 0 0 0 0 0 0 0 0 0.423529 0 0 0 0.97 0"/>
      <feBlend mode="normal" in2="shape" result="effect1_innerShadow_1328_10361"/>
    </filter>
    <filter id="filter2_d_1328_10361" x="68.9219" y="88.27" width="74.0418" height="21.9187" filterUnits="userSpaceOnUse" color-interpolation-filters="sRGB">
      <feFlood flood-opacity="0" result="BackgroundImageFix"/>
      <feColorMatrix in="SourceAlpha" type="matrix" values="0 0 0 0 0 0 0 0 0 0 0 0 0 0 0 0 0 0 127 0" result="hardAlpha"/>
      <feOffset dx="3.55556" dy="3.55556"/>
      <feGaussianBlur stdDeviation="1.77778"/>
      <feComposite in2="hardAlpha" operator="out"/>
      <feColorMatrix type="matrix" values="0 0 0 0 0.0980392 0 0 0 0 0.0980392 0 0 0 0 0.239216 0 0 0 0.1 0"/>
      <feBlend mode="normal" in2="BackgroundImageFix" result="effect1_dropShadow_1328_10361"/>
      <feBlend mode="normal" in="SourceGraphic" in2="effect1_dropShadow_1328_10361" result="shape"/>
    </filter>
    <linearGradient id="paint0_linear_1328_10361" x1="64.9167" y1="34.5833" x2="119.083" y2="157.917" gradientUnits="userSpaceOnUse">
      <stop stop-color="white" stop-opacity="0.8"/>
      <stop offset="1" stop-color="white"/>
    </linearGradient>
    <radialGradient id="paint1_radial_1328_10361" cx="0" cy="0" r="1" gradientUnits="userSpaceOnUse" gradientTransform="translate(102 97.0261) rotate(90) scale(74.5528 64.4626)">
      <stop stop-color="white"/>
      <stop offset="1" stop-color="white"/>
    </radialGradient>
    <radialGradient id="paint2_radial_1328_10361" cx="0" cy="0" r="1" gradientUnits="userSpaceOnUse" gradientTransform="translate(83.6957 79.5384) rotate(-48.4041) scale(46.1528 24.3322)">
      <stop stop-color="white"/>
      <stop offset="1" stop-color="white" stop-opacity="0"/>
    </radialGradient>
    <linearGradient id="paint3_linear_1328_10361" x1="102" y1="49.165" x2="102" y2="144.887" gradientUnits="userSpaceOnUse">
      <stop stop-color="white"/>
      <stop offset="0.0001" stop-color="white" stop-opacity="0"/>
      <stop offset="1" stop-color="white"/>
    </linearGradient>
    <linearGradient id="paint4_linear_1328_10361" x1="102" y1="49.165" x2="102" y2="144.887" gradientUnits="userSpaceOnUse">
      <stop stop-color="white"/>
      <stop offset="1" stop-color="white" stop-opacity="0.5"/>
    </linearGradient>
    <linearGradient id="paint5_linear_1328_10361" x1="92.8327" y1="41.6694" x2="111.166" y2="150.419" gradientUnits="userSpaceOnUse">
      <stop stop-color="white" stop-opacity="0.6"/>
      <stop offset="1" stop-color="white"/>
    </linearGradient>
  </defs>
</svg>