<svg xmlns="http://www.w3.org/2000/svg" width="160" height="160" viewBox="0 0 160 160" fill="none">
  <path opacity="0.7" d="M75.8087 12.4449C78.3986 10.9341 81.6011 10.9341 84.191 12.4449L135.873 42.5927C138.429 44.0834 140 46.8192 140 49.7776V110.222C140 113.181 138.429 115.917 135.873 117.407L84.191 147.555C81.6012 149.066 78.3986 149.066 75.8087 147.555L24.1266 117.407C21.5712 115.917 19.9999 113.181 19.9999 110.222V49.7776C19.9999 46.8192 21.5712 44.0834 24.1266 42.5927L75.8087 12.4449Z" fill="url(#paint0_linear_1600_26393)"/>
  <g opacity="0.6">
    <g filter="url(#filter0_i_1600_26393)">
      <path d="M78.1995 35.2184C79.3115 34.5678 80.6881 34.5678 81.8001 35.2184L117.402 56.0491C118.495 56.6886 119.166 57.8598 119.166 59.126V100.87C119.166 102.136 118.495 103.308 117.402 103.947L81.8001 124.778C80.6881 125.428 79.3115 125.428 78.1995 124.778L42.5979 103.947C41.505 103.308 40.8334 102.136 40.8334 100.87V59.126C40.8334 57.8598 41.505 56.6886 42.5979 56.0491L78.1995 35.2184Z" fill="url(#paint1_radial_1600_26393)" fill-opacity="0.3"/>
      <path d="M78.1995 35.2184C79.3115 34.5678 80.6881 34.5678 81.8001 35.2184L117.402 56.0491C118.495 56.6886 119.166 57.8598 119.166 59.126V100.87C119.166 102.136 118.495 103.308 117.402 103.947L81.8001 124.778C80.6881 125.428 79.3115 125.428 78.1995 124.778L42.5979 103.947C41.505 103.308 40.8334 102.136 40.8334 100.87V59.126C40.8334 57.8598 41.505 56.6886 42.5979 56.0491L78.1995 35.2184Z" fill="url(#paint2_radial_1600_26393)" fill-opacity="0.29"/>
      <path d="M78.1995 35.2184C79.3115 34.5678 80.6881 34.5678 81.8001 35.2184L117.402 56.0491C118.495 56.6886 119.166 57.8598 119.166 59.126V100.87C119.166 102.136 118.495 103.308 117.402 103.947L81.8001 124.778C80.6881 125.428 79.3115 125.428 78.1995 124.778L42.5979 103.947C41.505 103.308 40.8334 102.136 40.8334 100.87V59.126C40.8334 57.8598 41.505 56.6886 42.5979 56.0491L78.1995 35.2184Z" fill="url(#paint3_linear_1600_26393)" fill-opacity="0.2" style="mix-blend-mode:multiply"/>
    </g>
    <path d="M83.2403 32.7569L81.8001 35.2184L83.2403 32.7569C81.2387 31.5858 78.7609 31.5858 76.7593 32.7569L78.1995 35.2184L76.7593 32.7569L41.1577 53.5876C39.1905 54.7386 37.9815 56.8468 37.9815 59.126V100.87C37.9815 103.149 39.1905 105.258 41.1577 106.409L41.1577 106.409L76.7593 127.239C78.7609 128.41 81.2387 128.41 83.2403 127.239L118.842 106.409C120.809 105.258 122.018 103.149 122.018 100.87V59.126C122.018 56.8468 120.809 54.7387 118.842 53.5876L83.2403 32.7569Z" stroke="url(#paint4_linear_1600_26393)" stroke-width="5.70374"/>
  </g>
  <path d="M85.6465 29.4739C82.1557 27.4428 77.8431 27.4428 74.3523 29.4739L39.3323 49.8491C35.8763 51.8599 33.7501 55.5567 33.7501 59.5551V100.45C33.7501 104.449 35.8763 108.146 39.3323 110.156L74.3523 130.532C77.8431 132.563 82.1557 132.563 85.6465 130.532L120.666 110.156C124.123 108.146 126.249 104.449 126.249 100.45V59.5551C126.249 55.5567 124.123 51.8599 120.666 49.8491L85.6465 29.4739Z" stroke="url(#paint5_linear_1600_26393)" stroke-width="0.831796"/>
  <defs>
    <filter id="filter0_i_1600_26393" x="35.1296" y="29.0269" width="89.7403" height="101.943" filterUnits="userSpaceOnUse" color-interpolation-filters="sRGB">
      <feFlood flood-opacity="0" result="BackgroundImageFix"/>
      <feBlend mode="normal" in="SourceGraphic" in2="BackgroundImageFix" result="shape"/>
      <feColorMatrix in="SourceAlpha" type="matrix" values="0 0 0 0 0 0 0 0 0 0 0 0 0 0 0 0 0 0 127 0" result="hardAlpha"/>
      <feOffset/>
      <feGaussianBlur stdDeviation="16.0418"/>
      <feComposite in2="hardAlpha" operator="arithmetic" k2="-1" k3="1"/>
      <feColorMatrix type="matrix" values="0 0 0 0 0.584314 0 0 0 0 0 0 0 0 0 0.423529 0 0 0 0.97 0"/>
      <feBlend mode="normal" in2="shape" result="effect1_innerShadow_1600_26393"/>
    </filter>
    <linearGradient id="paint0_linear_1600_26393" x1="42.9165" y1="19.5833" x2="97.0832" y2="142.917" gradientUnits="userSpaceOnUse">
      <stop stop-color="white" stop-opacity="0.8"/>
      <stop offset="1" stop-color="white"/>
    </linearGradient>
    <radialGradient id="paint1_radial_1600_26393" cx="0" cy="0" r="1" gradientUnits="userSpaceOnUse" gradientTransform="translate(79.9998 82.0261) rotate(90) scale(74.5528 64.4626)">
      <stop stop-color="white"/>
      <stop offset="1" stop-color="#C9407D"/>
    </radialGradient>
    <radialGradient id="paint2_radial_1600_26393" cx="0" cy="0" r="1" gradientUnits="userSpaceOnUse" gradientTransform="translate(34 76.5) rotate(9.86581) scale(46.6905 106.497)">
      <stop stop-color="#C9407D"/>
      <stop offset="1" stop-color="#C9407D" stop-opacity="0"/>
    </radialGradient>
    <linearGradient id="paint3_linear_1600_26393" x1="79.9998" y1="34.165" x2="79.9998" y2="129.887" gradientUnits="userSpaceOnUse">
      <stop stop-color="white"/>
      <stop offset="0.0001" stop-color="white" stop-opacity="0"/>
      <stop offset="1" stop-color="white"/>
    </linearGradient>
    <linearGradient id="paint4_linear_1600_26393" x1="79.9998" y1="34.165" x2="79.9998" y2="129.887" gradientUnits="userSpaceOnUse">
      <stop stop-color="white"/>
      <stop offset="1" stop-color="white" stop-opacity="0.5"/>
    </linearGradient>
    <linearGradient id="paint5_linear_1600_26393" x1="70.8327" y1="26.6694" x2="89.166" y2="135.419" gradientUnits="userSpaceOnUse">
      <stop stop-color="white" stop-opacity="0.6"/>
      <stop offset="1" stop-color="white"/>
    </linearGradient>
  </defs>
</svg>