<svg width="144" height="145" viewBox="0 0 144 145" fill="none" xmlns="http://www.w3.org/2000/svg">
<path d="M75.5973 10.3994C75.5973 12.585 73.8255 14.3567 71.64 14.3567C69.4544 14.3567 67.6827 12.585 67.6827 10.3994C67.6827 8.21388 69.4544 6.44214 71.64 6.44214C73.8255 6.44214 75.5973 8.21388 75.5973 10.3994Z" fill="#37D5C7"/>
<path d="M23.4328 101.058C23.4328 103.243 21.6611 105.015 19.4755 105.015C17.29 105.015 15.5182 103.243 15.5182 101.058C15.5182 98.8721 17.29 97.1003 19.4755 97.1003C21.6611 97.1003 23.4328 98.8721 23.4328 101.058Z" fill="#37D5C7"/>
<path d="M124.164 105.015C126.35 105.015 128.121 103.243 128.121 101.058C128.121 98.8721 126.35 97.1003 124.164 97.1003C121.979 97.1003 120.207 98.8721 120.207 101.058C120.207 103.243 121.979 105.015 124.164 105.015Z" fill="#37D5C7"/>
<path d="M61.5668 18.314C61.5668 20.897 59.4729 22.9909 56.89 22.9909C54.3071 22.9909 52.2132 20.897 52.2132 18.314C52.2132 15.7311 54.3071 13.6372 56.89 13.6372C59.4729 13.6372 61.5668 15.7311 61.5668 18.314Z" fill="#37D5C7"/>
<path d="M70.5607 31.2652C73.1436 31.2652 75.2375 29.1713 75.2375 26.5884C75.2375 24.0055 73.1436 21.9116 70.5607 21.9116C67.9778 21.9116 65.8839 24.0055 65.8839 26.5884C65.8839 29.1713 67.9778 31.2652 70.5607 31.2652Z" fill="#37D5C7"/>
<path d="M74.8778 47.4542C74.8778 50.0371 72.7839 52.131 70.2009 52.131C67.618 52.131 65.5241 50.0371 65.5241 47.4542C65.5241 44.8712 67.618 42.7774 70.2009 42.7774C72.7839 42.7774 74.8778 44.8712 74.8778 47.4542Z" fill="#37D5C7"/>
<path d="M71.8198 75.515C74.4028 75.515 76.4967 73.4212 76.4967 70.8382C76.4967 68.2553 74.4028 66.1614 71.8198 66.1614C69.2369 66.1614 67.143 68.2553 67.143 70.8382C67.143 73.4212 69.2369 75.515 71.8198 75.515Z" fill="#37D5C7"/>
<path d="M38.5425 94.582C38.5425 97.165 36.4487 99.2589 33.8657 99.2589C31.2828 99.2589 29.1889 97.165 29.1889 94.582C29.1889 91.9991 31.2828 89.9052 33.8657 89.9052C36.4487 89.9052 38.5425 91.9991 38.5425 94.582Z" fill="#37D5C7"/>
<path d="M19.1158 89.9052C21.6987 89.9052 23.7926 87.8114 23.7926 85.2284C23.7926 82.6455 21.6987 80.5516 19.1158 80.5516C16.5328 80.5516 14.439 82.6455 14.439 85.2284C14.439 87.8114 16.5328 89.9052 19.1158 89.9052Z" fill="#37D5C7"/>
<path d="M38.5425 110.051C38.5425 112.634 36.4487 114.728 33.8657 114.728C31.2828 114.728 29.1889 112.634 29.1889 110.051C29.1889 107.469 31.2828 105.375 33.8657 105.375C36.4487 105.375 38.5425 107.469 38.5425 110.051Z" fill="#37D5C7"/>
<path d="M110.853 96.3808C113.436 96.3808 115.53 94.2869 115.53 91.704C115.53 89.1211 113.436 87.0272 110.853 87.0272C108.27 87.0272 106.176 89.1211 106.176 91.704C106.176 94.2869 108.27 96.3808 110.853 96.3808Z" fill="#37D5C7"/>
<path d="M114.811 108.612C114.811 111.195 112.717 113.289 110.134 113.289C107.551 113.289 105.457 111.195 105.457 108.612C105.457 106.03 107.551 103.936 110.134 103.936C112.717 103.936 114.811 106.03 114.811 108.612Z" fill="#37D5C7"/>
<path d="M124.884 88.6461C127.467 88.6461 129.56 86.5522 129.56 83.9693C129.56 81.3863 127.467 79.2925 124.884 79.2925C122.301 79.2925 120.207 81.3863 120.207 83.9693C120.207 86.5522 122.301 88.6461 124.884 88.6461Z" fill="#37D5C7"/>
<path d="M97.5423 80.9114C97.5423 83.4943 95.4484 85.5882 92.8655 85.5882C90.2826 85.5882 88.1887 83.4943 88.1887 80.9114C88.1887 78.3284 90.2826 76.2346 92.8655 76.2346C95.4484 76.2346 97.5423 78.3284 97.5423 80.9114Z" fill="#37D5C7"/>
<path d="M84.771 45.2956C88.0493 45.2956 90.707 42.638 90.707 39.3597C90.707 36.0814 88.0493 33.4237 84.771 33.4237C81.4927 33.4237 78.8351 36.0814 78.8351 39.3597C78.8351 42.638 81.4927 45.2956 84.771 45.2956Z" fill="#37D5C7"/>
<path d="M61.9266 39.3597C61.9266 42.638 59.269 45.2956 55.9906 45.2956C52.7123 45.2956 50.0547 42.638 50.0547 39.3597C50.0547 36.0814 52.7123 33.4237 55.9906 33.4237C59.269 33.4237 61.9266 36.0814 61.9266 39.3597Z" fill="#37D5C7"/>
<path d="M37.4633 35.5823C41.437 35.5823 44.6584 32.3609 44.6584 28.3872C44.6584 24.4134 41.437 21.1921 37.4633 21.1921C33.4895 21.1921 30.2682 24.4134 30.2682 28.3872C30.2682 32.3609 33.4895 35.5823 37.4633 35.5823Z" fill="#37D5C7"/>
<path d="M26.3109 64.7224C26.3109 68.6961 23.0895 71.9175 19.1158 71.9175C15.142 71.9175 11.9207 68.6961 11.9207 64.7224C11.9207 60.7487 15.142 57.5273 19.1158 57.5273C23.0895 57.5273 26.3109 60.7487 26.3109 64.7224Z" fill="#37D5C7"/>
<path d="M112.292 51.7712C112.292 51.1884 112.217 50.6236 112.084 50.0768L118.315 45.8389C119.797 47.4937 121.948 48.5334 124.344 48.5334C128.816 48.5334 132.439 44.9107 132.439 40.439C132.439 35.9672 128.816 32.3445 124.344 32.3445C122.193 32.3445 120.239 33.1863 118.789 34.5534L110.037 29.5024C110.094 29.1391 110.13 28.7685 110.13 28.3872C110.13 24.4119 106.91 21.1921 102.935 21.1921C98.9597 21.1921 95.7399 24.4119 95.7399 28.3872C95.7399 32.3625 98.9597 35.5823 102.935 35.5823C104.935 35.5823 106.745 34.7656 108.047 33.4489L116.523 38.3416C116.343 39.0107 116.246 39.7159 116.246 40.439C116.246 40.9138 116.289 41.3743 116.368 41.8276L109.774 46.3138C108.515 45.2345 106.882 44.5761 105.094 44.5761C101.118 44.5761 97.8985 47.7959 97.8985 51.7712C97.8985 55.7465 101.118 58.9663 105.094 58.9663C109.069 58.9663 112.289 55.7465 112.289 51.7712H112.292Z" fill="#37D5C7"/>
<path d="M132.798 62.2041C132.798 66.1779 129.577 69.3992 125.603 69.3992C121.629 69.3992 118.408 66.1779 118.408 62.2041C118.408 58.2304 121.629 55.009 125.603 55.009C129.577 55.009 132.798 58.2304 132.798 62.2041Z" fill="#37D5C7"/>
<path d="M94.8981 112.591V103.472C97.0314 102.572 98.5316 100.46 98.5316 97.9997C98.5316 94.7223 95.873 92.0638 92.5957 92.0638C91.1351 92.0638 89.7968 92.5962 88.7607 93.4704L77.745 89.1965C77.6551 85.9947 75.0396 83.426 71.8162 83.426C70.0031 83.426 68.3842 84.2391 67.2941 85.5198L56.7281 82.595C56.4331 81.4762 55.7424 80.5192 54.807 79.8933L56.4151 67.5357C59.322 67.1507 61.5668 64.6684 61.5668 61.6573C61.5668 58.3799 58.9082 55.7213 55.6309 55.7213C54.3861 55.7213 53.2349 56.1063 52.2816 56.7574L45.3059 52.7318C45.3491 52.4152 45.3779 52.095 45.3779 51.764C45.3779 47.7887 42.1581 44.5689 38.1828 44.5689C34.2075 44.5689 30.9877 47.7887 30.9877 51.764C30.9877 55.7393 34.2075 58.9591 38.1828 58.9591C40.2334 58.9591 42.0789 58.0957 43.392 56.7178L49.8244 60.4305C49.7417 60.8263 49.6985 61.2364 49.6985 61.6537C49.6985 63.6144 50.6519 65.3448 52.1161 66.4276L50.4216 79.4615C48.7308 80.1667 47.5436 81.8323 47.5436 83.7786C47.5436 86.3616 49.6374 88.4554 52.2204 88.4554C53.6091 88.4554 54.8538 87.8474 55.71 86.8833L65.9091 89.7038C66.0925 92.8192 68.6684 95.2908 71.827 95.2908C73.5754 95.2908 75.1404 94.5317 76.2268 93.3265L86.6957 97.3881C86.6777 97.586 86.6669 97.7838 86.6669 97.9889C86.6669 100.522 88.257 102.68 90.4947 103.533V112.516C87.5519 113.419 85.4078 116.157 85.4078 119.394C85.4078 123.37 88.6276 126.589 92.6029 126.589C96.5782 126.589 99.798 123.37 99.798 119.394C99.798 116.228 97.7474 113.545 94.9053 112.581L94.8981 112.591Z" fill="#37D5C7"/>
<path d="M79.0149 109.332C79.0149 113.306 75.7936 116.527 71.8198 116.527C67.8461 116.527 64.6247 113.306 64.6247 109.332C64.6247 105.358 67.8461 102.137 71.8198 102.137C75.7936 102.137 79.0149 105.358 79.0149 109.332Z" fill="#37D5C7"/>
<path d="M51.8535 129.118C55.8272 129.118 59.0485 125.897 59.0485 121.923C59.0485 117.95 55.8272 114.728 51.8535 114.728C47.8797 114.728 44.6584 117.95 44.6584 121.923C44.6584 125.897 47.8797 129.118 51.8535 129.118Z" fill="#37D5C7"/>
<path d="M79.9143 131.457C79.9143 135.927 76.2903 139.551 71.8198 139.551C67.3494 139.551 63.7254 135.927 63.7254 131.457C63.7254 126.986 67.3494 123.362 71.8198 123.362C76.2903 123.362 79.9143 126.986 79.9143 131.457Z" fill="#37D5C7"/>
<path d="M19.2957 48.5334C23.7661 48.5334 27.3901 44.9094 27.3901 40.439C27.3901 35.9685 23.7661 32.3445 19.2957 32.3445C14.8252 32.3445 11.2012 35.9685 11.2012 40.439C11.2012 44.9094 14.8252 48.5334 19.2957 48.5334Z" fill="#37D5C7"/>
<path d="M43.5791 75.6949C43.5791 78.9733 40.9215 81.6309 37.6431 81.6309C34.3648 81.6309 31.7072 78.9733 31.7072 75.6949C31.7072 72.4166 34.3648 69.759 37.6431 69.759C40.9215 69.759 43.5791 72.4166 43.5791 75.6949Z" fill="#37D5C7"/>
<path d="M52.0333 106.454C55.3117 106.454 57.9693 103.796 57.9693 100.518C57.9693 97.2397 55.3117 94.582 52.0333 94.582C48.755 94.582 46.0974 97.2397 46.0974 100.518C46.0974 103.796 48.755 106.454 52.0333 106.454Z" fill="#37D5C7"/>
<path d="M113.012 73.1766C113.012 76.455 110.354 79.1126 107.076 79.1126C103.797 79.1126 101.14 76.455 101.14 73.1766C101.14 69.8983 103.797 67.2407 107.076 67.2407C110.354 67.2407 113.012 69.8983 113.012 73.1766Z" fill="#37D5C7"/>
<path d="M87.649 67.6004C90.9274 67.6004 93.585 64.9428 93.585 61.6645C93.585 58.3862 90.9274 55.7285 87.649 55.7285C84.3707 55.7285 81.7131 58.3862 81.7131 61.6645C81.7131 64.9428 84.3707 67.6004 87.649 67.6004Z" fill="#37D5C7"/>
<path d="M90.3472 18.314C90.3472 20.897 88.2533 22.9909 85.6704 22.9909C83.0875 22.9909 80.9936 20.897 80.9936 18.314C80.9936 15.7311 83.0875 13.6372 85.6704 13.6372C88.2533 13.6372 90.3472 15.7311 90.3472 18.314Z" fill="#37D5C7"/>
</svg>
