<svg width="431" height="144" viewBox="0 0 431 144" fill="none" xmlns="http://www.w3.org/2000/svg">
<path d="M191.331 107.553C189.719 104.796 187.509 102.696 184.702 101.256C181.895 99.8171 178.734 99.0975 175.219 99.0975C172.092 99.0975 169.239 99.7919 166.65 101.185C164.541 102.317 162.765 103.799 161.305 105.612V101.808C161.305 101.126 161.111 100.587 160.72 100.196C160.328 99.8045 159.79 99.6109 159.108 99.6109C158.472 99.6109 157.946 99.8087 157.534 100.196C157.117 100.587 156.911 101.126 156.911 101.808V137.472C156.911 138.107 157.117 138.633 157.534 139.046C157.946 139.463 158.472 139.669 159.108 139.669C159.79 139.669 160.328 139.463 160.72 139.046C161.111 138.633 161.305 138.107 161.305 137.472V115.065C161.305 112.868 161.915 110.89 163.136 109.135C164.356 107.376 166.015 106 168.115 104.998C170.215 103.996 172.58 103.495 175.219 103.495C177.858 103.495 180.308 104.022 182.433 105.07C184.559 106.122 186.243 107.696 187.488 109.792C188.734 111.892 189.357 114.552 189.357 117.775V137.476C189.357 138.112 189.563 138.638 189.98 139.05C190.392 139.467 190.919 139.673 191.554 139.673C192.19 139.673 192.712 139.467 193.128 139.05C193.541 138.638 193.751 138.112 193.751 137.476V117.775C193.751 113.722 192.947 110.318 191.335 107.561L191.331 107.553Z" fill="white"/>
<path d="M235.4 108.604C233.834 105.642 231.657 103.317 228.864 101.629C226.075 99.9413 222.868 99.0975 219.248 99.0975C215.628 99.0975 212.32 99.9793 209.485 101.739C206.645 103.502 204.417 105.912 202.806 108.971C201.19 112.03 200.384 115.565 200.384 119.578C200.384 123.591 201.24 127.067 202.953 130.152C204.666 133.236 207.029 135.645 210.038 137.384C213.046 139.122 216.485 139.991 220.354 139.991C222.653 139.991 225.063 139.527 227.586 138.594C230.105 137.666 232.147 136.489 233.716 135.071C234.206 134.633 234.438 134.143 234.413 133.603C234.387 133.067 234.105 132.574 233.569 132.135C233.176 131.793 232.7 131.633 232.138 131.658C231.577 131.683 231.096 131.89 230.708 132.282C229.581 133.358 228.054 134.228 226.117 134.89C224.185 135.552 222.265 135.881 220.354 135.881C217.32 135.881 214.628 135.185 212.278 133.789C209.928 132.392 208.093 130.472 206.772 128.025C205.637 125.924 204.991 123.548 204.831 120.903H235.623C236.261 120.903 236.771 120.717 237.164 120.354C237.556 119.987 237.75 119.485 237.75 118.848C237.75 114.983 236.965 111.57 235.4 108.608V108.604ZM206.658 111.063C207.907 108.616 209.62 106.696 211.797 105.3C213.974 103.903 216.459 103.207 219.248 103.207C222.185 103.207 224.742 103.903 226.919 105.3C229.096 106.696 230.776 108.616 231.948 111.063C232.813 112.869 233.332 114.878 233.505 117.084H204.92C205.164 114.869 205.738 112.861 206.654 111.063H206.658Z" fill="white"/>
<path d="M321.035 100.577C320.715 99.8964 320.123 99.5521 319.246 99.5521C318.272 99.5521 317.587 99.9888 317.201 100.866L307.061 131.429L297.475 101.307C297.282 100.774 297.001 100.346 296.636 100.031C296.27 99.7159 295.821 99.5563 295.284 99.5563C294.746 99.5563 294.284 99.7159 293.894 100.031C293.503 100.35 293.235 100.774 293.092 101.307L283.615 131.971L273.295 100.871C273.102 100.434 272.808 100.102 272.417 99.8838C272.027 99.6655 271.636 99.5563 271.25 99.5563C270.519 99.5563 270.007 99.8125 269.717 100.325C269.424 100.837 269.377 101.626 269.57 102.701L281.407 138.134C281.554 138.571 281.81 138.915 282.175 139.159C282.54 139.402 282.964 139.524 283.456 139.524C283.892 139.524 284.295 139.415 284.661 139.197C285.026 138.978 285.307 138.626 285.5 138.139L295.116 107.202L305.079 138.139C305.176 138.575 305.419 138.92 305.81 139.163C306.2 139.407 306.637 139.528 307.124 139.528C307.661 139.528 308.111 139.407 308.476 139.163C308.841 138.92 309.097 138.579 309.244 138.139L321.005 102.705C321.345 101.975 321.358 101.269 321.043 100.585L321.035 100.577Z" fill="white"/>
<path d="M343.837 139.991C339.935 139.991 336.437 139.1 333.338 137.321C330.239 135.543 327.8 133.104 326.022 130.005C324.239 126.906 323.352 123.433 323.352 119.582C323.352 115.731 324.243 112.182 326.022 109.083C327.8 105.989 330.239 103.55 333.338 101.767C336.432 99.9889 339.935 99.0975 343.837 99.0975C347.738 99.0975 351.224 99.9889 354.298 101.767C357.371 103.55 359.797 105.989 361.576 109.083C363.354 112.182 364.246 115.68 364.246 119.582C364.246 123.484 363.354 126.911 361.576 130.005C359.793 133.104 357.367 135.543 354.298 137.321C351.224 139.104 347.738 139.991 343.837 139.991ZM343.837 135.896C346.91 135.896 349.652 135.177 352.069 133.739C354.483 132.301 356.387 130.35 357.775 127.886C359.166 125.422 359.86 122.63 359.86 119.511C359.86 116.391 359.166 113.67 357.775 111.207C356.383 108.743 354.483 106.792 352.069 105.354C349.656 103.916 346.91 103.197 343.837 103.197C340.763 103.197 338.081 103.916 335.642 105.354C333.203 106.792 331.278 108.743 329.861 111.207C328.444 113.67 327.737 116.462 327.737 119.582C327.737 122.702 328.444 125.422 329.861 127.886C331.273 130.35 333.199 132.301 335.642 133.739C338.081 135.177 340.809 135.896 343.837 135.896Z" fill="white"/>
<path d="M392.064 100.211C391.04 99.7747 389.604 99.5521 387.752 99.5521C385.023 99.5521 382.541 100.237 380.299 101.597C378.246 102.848 376.541 104.544 375.185 106.673V102.181C375.185 101.5 374.992 100.963 374.602 100.572C374.211 100.182 373.674 99.9888 372.993 99.9888C372.359 99.9888 371.835 100.186 371.423 100.572C371.007 100.963 370.802 101.5 370.802 102.181V137.761C370.802 138.395 371.007 138.92 371.423 139.331C371.835 139.747 372.359 139.952 372.993 139.952C373.674 139.952 374.211 139.747 374.602 139.331C374.992 138.92 375.185 138.395 375.185 137.761V115.549C375.185 113.261 375.723 111.229 376.793 109.449C377.864 107.673 379.35 106.27 381.248 105.25C383.146 104.23 385.313 103.717 387.752 103.717C388.676 103.717 389.516 103.78 390.271 103.902C391.027 104.024 391.67 104.011 392.207 103.864C392.744 103.717 393.084 103.281 393.231 102.55C393.475 101.429 393.084 100.652 392.064 100.211Z" fill="white"/>
<path d="M429.891 136.131L413.935 116.606L429.454 102.524C429.941 102.133 430.184 101.697 430.184 101.21C430.184 100.723 429.966 100.236 429.525 99.7485C429.089 99.2614 428.635 99.0179 428.173 99.0179C427.711 99.0179 427.237 99.211 426.75 99.6015L404.102 120.209V84.4776C404.102 83.7974 403.909 83.2599 403.518 82.8694C403.128 82.4789 402.59 82.2858 401.91 82.2858C401.276 82.2858 400.751 82.4789 400.34 82.8694C399.924 83.2599 399.718 83.7974 399.718 84.4776V137.151C399.718 137.785 399.924 138.31 400.34 138.721C400.751 139.137 401.276 139.343 401.91 139.343C402.59 139.343 403.128 139.137 403.518 138.721C403.909 138.31 404.102 137.785 404.102 137.151V125.525L410.929 119.327L426.75 138.683C427.14 139.17 427.59 139.452 428.102 139.523C428.614 139.595 429.114 139.414 429.601 138.973C430.138 138.536 430.415 138.07 430.441 137.583C430.466 137.096 430.281 136.609 429.895 136.122L429.891 136.131Z" fill="white"/>
<path d="M264.177 101.589C263.812 101.224 263.337 101.039 262.753 101.039H253.063V89.4758C253.063 88.7956 252.869 88.2581 252.479 87.8676C252.088 87.4772 251.55 87.2841 250.869 87.2841C250.235 87.2841 249.709 87.4772 249.298 87.8676C248.882 88.2581 248.676 88.7956 248.676 89.4758V101.039H242.94C242.356 101.039 241.881 101.224 241.515 101.589C241.15 101.955 240.965 102.429 240.965 103.013C240.965 103.596 241.15 104.071 241.515 104.436C241.881 104.801 242.356 104.986 242.94 104.986H248.676V127.672C248.676 130.061 249.079 132.152 249.882 133.953C250.684 135.754 251.806 137.169 253.243 138.19C254.681 139.214 256.324 139.722 258.177 139.722H259.639C260.32 139.722 260.858 139.516 261.248 139.101C261.639 138.689 261.833 138.164 261.833 137.53C261.833 136.85 261.66 136.313 261.32 135.922C260.98 135.532 260.538 135.339 260.005 135.339H258.177C256.664 135.339 255.437 134.621 254.483 133.185C253.533 131.749 253.059 129.91 253.059 127.668V104.982H262.749C263.333 104.982 263.808 104.797 264.173 104.432C264.539 104.066 264.719 103.592 264.719 103.008C264.719 102.425 264.539 101.95 264.173 101.585L264.177 101.589Z" fill="white"/>
<path d="M65.2057 14.848C65.2057 17.0336 63.4339 18.8054 61.2484 18.8054C59.0628 18.8054 57.2911 17.0336 57.2911 14.848C57.2911 12.6625 59.0628 10.8907 61.2484 10.8907C63.4339 10.8907 65.2057 12.6625 65.2057 14.848Z" fill="white"/>
<path d="M13.0412 105.506C13.0412 107.692 11.2695 109.464 9.08393 109.464C6.89837 109.464 5.12663 107.692 5.12663 105.506C5.12663 103.321 6.89837 101.549 9.08393 101.549C11.2695 101.549 13.0412 103.321 13.0412 105.506Z" fill="white"/>
<path d="M113.773 109.464C115.958 109.464 117.73 107.692 117.73 105.506C117.73 103.321 115.958 101.549 113.773 101.549C111.587 101.549 109.815 103.321 109.815 105.506C109.815 107.692 111.587 109.464 113.773 109.464Z" fill="white"/>
<path d="M51.1752 22.7627C51.1752 25.3456 49.0813 27.4395 46.4984 27.4395C43.9155 27.4395 41.8216 25.3456 41.8216 22.7627C41.8216 20.1797 43.9155 18.0858 46.4984 18.0858C49.0813 18.0858 51.1752 20.1797 51.1752 22.7627Z" fill="white"/>
<path d="M60.1691 35.7138C62.752 35.7138 64.8459 33.6199 64.8459 31.037C64.8459 28.4541 62.752 26.3602 60.1691 26.3602C57.5862 26.3602 55.4923 28.4541 55.4923 31.037C55.4923 33.6199 57.5862 35.7138 60.1691 35.7138Z" fill="white"/>
<path d="M64.4862 51.9028C64.4862 54.4857 62.3923 56.5796 59.8093 56.5796C57.2264 56.5796 55.1325 54.4857 55.1325 51.9028C55.1325 49.3199 57.2264 47.226 59.8093 47.226C62.3923 47.226 64.4862 49.3199 64.4862 51.9028Z" fill="white"/>
<path d="M61.4282 79.9637C64.0112 79.9637 66.105 77.8698 66.105 75.2868C66.105 72.7039 64.0112 70.61 61.4282 70.61C58.8453 70.61 56.7514 72.7039 56.7514 75.2868C56.7514 77.8698 58.8453 79.9637 61.4282 79.9637Z" fill="white"/>
<path d="M28.1509 99.0307C28.1509 101.614 26.057 103.707 23.4741 103.707C20.8912 103.707 18.7973 101.614 18.7973 99.0307C18.7973 96.4477 20.8912 94.3538 23.4741 94.3538C26.057 94.3538 28.1509 96.4477 28.1509 99.0307Z" fill="white"/>
<path d="M8.72417 94.3538C11.3071 94.3538 13.401 92.26 13.401 89.677C13.401 87.0941 11.3071 85.0002 8.72417 85.0002C6.14124 85.0002 4.04736 87.0941 4.04736 89.677C4.04736 92.26 6.14124 94.3538 8.72417 94.3538Z" fill="white"/>
<path d="M28.1509 114.5C28.1509 117.083 26.057 119.177 23.4741 119.177C20.8912 119.177 18.7973 117.083 18.7973 114.5C18.7973 111.917 20.8912 109.823 23.4741 109.823C26.057 109.823 28.1509 111.917 28.1509 114.5Z" fill="white"/>
<path d="M100.462 100.829C103.045 100.829 105.138 98.7355 105.138 96.1526C105.138 93.5697 103.045 91.4758 100.462 91.4758C97.8787 91.4758 95.7848 93.5697 95.7848 96.1526C95.7848 98.7355 97.8787 100.829 100.462 100.829Z" fill="white"/>
<path d="M104.419 113.061C104.419 115.644 102.325 117.738 99.7421 117.738C97.1592 117.738 95.0653 115.644 95.0653 113.061C95.0653 110.478 97.1592 108.384 99.7421 108.384C102.325 108.384 104.419 110.478 104.419 113.061Z" fill="white"/>
<path d="M114.492 93.0947C117.075 93.0947 119.169 91.0008 119.169 88.4179C119.169 85.835 117.075 83.7411 114.492 83.7411C111.909 83.7411 109.815 85.835 109.815 88.4179C109.815 91.0008 111.909 93.0947 114.492 93.0947Z" fill="white"/>
<path d="M87.1507 85.36C87.1507 87.9429 85.0568 90.0368 82.4739 90.0368C79.891 90.0368 77.7971 87.9429 77.7971 85.36C77.7971 82.777 79.891 80.6832 82.4739 80.6832C85.0568 80.6832 87.1507 82.777 87.1507 85.36Z" fill="white"/>
<path d="M74.3794 49.7443C77.6577 49.7443 80.3154 47.0866 80.3154 43.8083C80.3154 40.53 77.6577 37.8724 74.3794 37.8724C71.1011 37.8724 68.4435 40.53 68.4435 43.8083C68.4435 47.0866 71.1011 49.7443 74.3794 49.7443Z" fill="white"/>
<path d="M51.535 43.8083C51.535 47.0866 48.8774 49.7443 45.599 49.7443C42.3207 49.7443 39.6631 47.0866 39.6631 43.8083C39.6631 40.53 42.3207 37.8724 45.599 37.8724C48.8774 37.8724 51.535 40.53 51.535 43.8083Z" fill="white"/>
<path d="M27.0717 40.0309C31.0454 40.0309 34.2668 36.8095 34.2668 32.8358C34.2668 28.862 31.0454 25.6407 27.0717 25.6407C23.0979 25.6407 19.8766 28.862 19.8766 32.8358C19.8766 36.8095 23.0979 40.0309 27.0717 40.0309Z" fill="white"/>
<path d="M15.9193 69.171C15.9193 73.1448 12.6979 76.3661 8.72417 76.3661C4.75043 76.3661 1.52908 73.1448 1.52908 69.171C1.52908 65.1973 4.75043 61.9759 8.72417 61.9759C12.6979 61.9759 15.9193 65.1973 15.9193 69.171Z" fill="white"/>
<path d="M101.901 56.2198C101.901 55.637 101.825 55.0722 101.692 54.5254L107.923 50.2875C109.405 51.9424 111.556 52.982 113.952 52.982C118.424 52.982 122.047 49.3593 122.047 44.8876C122.047 40.4158 118.424 36.7931 113.952 36.7931C111.801 36.7931 109.848 37.6349 108.398 39.002L99.645 33.951C99.7025 33.5877 99.7385 33.2171 99.7385 32.8358C99.7385 28.8605 96.5187 25.6407 92.5434 25.6407C88.5681 25.6407 85.3483 28.8605 85.3483 32.8358C85.3483 36.8111 88.5681 40.0309 92.5434 40.0309C94.5437 40.0309 96.3532 39.2142 97.6555 37.8975L106.131 42.7902C105.951 43.4593 105.854 44.1645 105.854 44.8876C105.854 45.3624 105.898 45.8229 105.977 46.2762L99.3824 50.7624C98.1232 49.6831 96.4899 49.0247 94.702 49.0247C90.7267 49.0247 87.5069 52.2445 87.5069 56.2198C87.5069 60.1951 90.7267 63.4149 94.702 63.4149C98.6772 63.4149 101.897 60.1951 101.897 56.2198H101.901Z" fill="white"/>
<path d="M122.407 66.6527C122.407 70.6265 119.185 73.8478 115.212 73.8478C111.238 73.8478 108.016 70.6265 108.016 66.6527C108.016 62.679 111.238 59.4576 115.212 59.4576C119.185 59.4576 122.407 62.679 122.407 66.6527Z" fill="white"/>
<path d="M84.5065 117.04V107.92C86.6398 107.021 88.14 104.909 88.14 102.448C88.14 99.171 85.4814 96.5124 82.2041 96.5124C80.7435 96.5124 79.4052 97.0448 78.3691 97.919L67.3534 93.6451C67.2635 90.4433 64.648 87.8747 61.4246 87.8747C59.6115 87.8747 57.9926 88.6877 56.9025 89.9684L46.3365 87.0436C46.0415 85.9248 45.3508 84.9678 44.4154 84.3419L46.0235 71.9843C48.9304 71.5993 51.1752 69.117 51.1752 66.1059C51.1752 62.8285 48.5166 60.1699 45.2393 60.1699C43.9945 60.1699 42.8433 60.5549 41.89 61.206L34.9143 57.1804C34.9575 56.8638 34.9863 56.5436 34.9863 56.2126C34.9863 52.2374 31.7665 49.0175 27.7912 49.0175C23.8159 49.0175 20.5961 52.2374 20.5961 56.2126C20.5961 60.1879 23.8159 63.4077 27.7912 63.4077C29.8418 63.4077 31.6873 62.5443 33.0004 61.1665L39.4328 64.8791C39.3501 65.2749 39.3069 65.685 39.3069 66.1023C39.3069 68.063 40.2603 69.7934 41.7245 70.8762L40.03 83.9101C38.3392 84.6153 37.152 86.2809 37.152 88.2272C37.152 90.8102 39.2458 92.904 41.8288 92.904C43.2175 92.904 44.4622 92.296 45.3184 91.3319L55.5175 94.1524C55.7009 97.2679 58.2768 99.7394 61.4354 99.7394C63.1838 99.7394 64.7488 98.9803 65.8352 97.7751L76.3041 101.837C76.2861 102.035 76.2753 102.232 76.2753 102.438C76.2753 104.97 77.8654 107.129 80.1031 107.981V116.964C77.1603 117.867 75.0162 120.605 75.0162 123.843C75.0162 127.818 78.236 131.038 82.2113 131.038C86.1866 131.038 89.4064 127.818 89.4064 123.843C89.4064 120.677 87.3558 117.993 84.5137 117.029L84.5065 117.04Z" fill="white"/>
<path d="M68.6233 113.781C68.6233 117.754 65.402 120.976 61.4282 120.976C57.4545 120.976 54.2331 117.754 54.2331 113.781C54.2331 109.807 57.4545 106.586 61.4282 106.586C65.402 106.586 68.6233 109.807 68.6233 113.781Z" fill="white"/>
<path d="M41.4619 133.567C45.4356 133.567 48.6569 130.346 48.6569 126.372C48.6569 122.398 45.4356 119.177 41.4619 119.177C37.4881 119.177 34.2668 122.398 34.2668 126.372C34.2668 130.346 37.4881 133.567 41.4619 133.567Z" fill="white"/>
<path d="M69.5227 135.906C69.5227 140.376 65.8987 144 61.4282 144C56.9578 144 53.3338 140.376 53.3338 135.906C53.3338 131.435 56.9578 127.811 61.4282 127.811C65.8987 127.811 69.5227 131.435 69.5227 135.906Z" fill="white"/>
<path d="M8.90405 52.982C13.3745 52.982 16.9985 49.358 16.9985 44.8876C16.9985 40.4171 13.3745 36.7931 8.90405 36.7931C4.43359 36.7931 0.80957 40.4171 0.80957 44.8876C0.80957 49.358 4.43359 52.982 8.90405 52.982Z" fill="white"/>
<path d="M33.1875 80.1435C33.1875 83.4219 30.5299 86.0795 27.2515 86.0795C23.9732 86.0795 21.3156 83.4219 21.3156 80.1435C21.3156 76.8652 23.9732 74.2076 27.2515 74.2076C30.5299 74.2076 33.1875 76.8652 33.1875 80.1435Z" fill="white"/>
<path d="M41.6417 110.903C44.9201 110.903 47.5777 108.245 47.5777 104.967C47.5777 101.688 44.9201 99.0307 41.6417 99.0307C38.3634 99.0307 35.7058 101.688 35.7058 104.967C35.7058 108.245 38.3634 110.903 41.6417 110.903Z" fill="white"/>
<path d="M102.62 77.6252C102.62 80.9036 99.9625 83.5612 96.6842 83.5612C93.4059 83.5612 90.7482 80.9036 90.7482 77.6252C90.7482 74.3469 93.4059 71.6893 96.6842 71.6893C99.9625 71.6893 102.62 74.3469 102.62 77.6252Z" fill="white"/>
<path d="M77.2574 72.049C80.5358 72.049 83.1934 69.3914 83.1934 66.1131C83.1934 62.8348 80.5358 60.1771 77.2574 60.1771C73.9791 60.1771 71.3215 62.8348 71.3215 66.1131C71.3215 69.3914 73.9791 72.049 77.2574 72.049Z" fill="white"/>
<path d="M79.9556 22.7627C79.9556 25.3456 77.8617 27.4395 75.2788 27.4395C72.6959 27.4395 70.602 25.3456 70.602 22.7627C70.602 20.1797 72.6959 18.0858 75.2788 18.0858C77.8617 18.0858 79.9556 20.1797 79.9556 22.7627Z" fill="white"/>
<path fill-rule="evenodd" clip-rule="evenodd" d="M215.878 71.7461C211.921 69.4524 208.781 66.2633 206.459 62.2121V62.1956C204.188 58.1222 203.043 53.4796 202.999 48.3064C202.955 43.1331 203.939 38.4352 206.001 34.3784C208.112 30.2774 211.042 27.0276 214.778 24.651C218.537 22.2578 222.865 21.0585 227.707 21.0143C232.483 20.9701 236.712 22.0534 240.344 24.3194C244.008 26.5081 246.855 29.5921 248.867 33.5383C250.874 37.4846 251.885 41.9559 251.935 46.9246C251.946 48.229 251.548 49.4117 250.658 50.3402L250.63 50.3679L250.603 50.3955C249.707 51.2356 248.574 51.6115 247.336 51.6225L212.623 51.9486C212.982 53.9438 213.618 55.7622 214.53 57.4147C216.055 60.0621 218.084 62.1237 220.638 63.6215C223.169 65.1082 226.099 65.8544 229.482 65.8212C231.477 65.8046 233.478 65.4454 235.49 64.7379C237.585 63.9642 239.172 63.0467 240.305 62.0242L240.333 61.9965C241.217 61.2393 242.262 60.8414 243.411 60.8193C244.545 60.7364 245.611 61.0293 246.507 61.7478L246.584 61.8142C247.568 62.7206 248.209 63.8536 248.237 65.1911C248.331 66.5397 247.778 67.6893 246.778 68.557C244.666 70.4196 242.013 71.9561 238.851 73.1941L238.829 73.2052C235.656 74.3824 232.566 74.9959 229.565 75.0236C224.502 75.0733 219.936 73.9955 215.901 71.7571L215.878 71.7461ZM235.684 32.3058C233.539 30.9075 230.93 30.1945 227.796 30.2222C224.612 30.2498 221.887 31.0457 219.571 32.5601C217.238 34.0855 215.42 36.1913 214.115 38.9216C213.496 40.2425 213.032 41.6684 212.728 43.1994L242.389 42.9231C242.085 41.2595 241.593 39.7174 240.902 38.286C239.669 35.7104 237.934 33.7318 235.695 32.3169L235.678 32.3058H235.684Z" fill="white"/>
<path d="M271.503 23.7038H271.515C274.615 21.8482 278.036 20.9314 281.756 20.9314C284.613 20.9314 287.001 21.3401 288.791 22.2845C289.72 22.776 290.499 23.4553 290.947 24.3832C291.405 25.3276 291.455 26.3548 291.217 27.3765L291.206 27.4097C290.908 28.5529 290.311 29.5857 289.244 30.1435C288.399 30.6129 287.426 30.7454 286.42 30.6737H286.409C285.641 30.6129 284.751 30.5522 283.734 30.4914H283.696C280.512 30.1987 277.738 30.5521 275.339 31.5021H275.323C272.979 32.3968 271.139 33.7664 269.752 35.6111C268.453 37.417 267.784 39.582 267.784 42.1832V69.6207C267.784 70.9959 267.397 72.2551 266.474 73.205C265.546 74.1549 264.308 74.5415 262.959 74.5415C261.611 74.5415 260.378 74.1549 259.45 73.205C258.521 72.2551 258.14 70.9959 258.14 69.6207V26.3935C258.14 25.0183 258.521 23.7591 259.45 22.8091C260.378 21.8592 261.616 21.4726 262.959 21.4726C264.302 21.4726 265.54 21.8592 266.474 22.8091C267.403 23.7591 267.784 25.0183 267.784 26.3935V26.5702C268.911 25.4767 270.155 24.5157 271.503 23.6983V23.7038Z" fill="white"/>
<path d="M299.369 73.2105L299.325 73.1607C298.44 72.1721 298.064 70.913 298.064 69.5322V47.1979C298.064 45.8227 298.446 44.5635 299.374 43.6136C300.336 42.6305 301.585 42.1832 302.972 42.1832C304.36 42.1832 305.493 42.6305 306.393 43.6136C307.372 44.547 307.797 45.8061 307.797 47.1979V69.5322C307.797 70.9516 307.361 72.2219 306.393 73.2049C305.481 74.1383 304.282 74.5414 302.972 74.5414C301.662 74.5414 300.391 74.1493 299.419 73.2491L299.369 73.2049V73.2105Z" fill="white"/>
<path fill-rule="evenodd" clip-rule="evenodd" d="M390.748 71.5038L390.732 71.4928C386.869 69.1014 383.79 65.8651 381.524 61.8003L381.513 61.7837C379.286 57.6968 378.186 53.1073 378.186 48.0539C378.186 43.0005 379.319 38.3117 381.613 34.2192L381.624 34.2027C383.962 30.1379 387.129 26.9291 391.119 24.604C395.126 22.2016 399.63 21.0141 404.593 21.0141C409.556 21.0141 414.033 22.2016 417.979 24.604C421.969 26.9291 425.108 30.1379 427.391 34.2082C429.74 38.2951 430.934 42.9177 430.994 48.0318V69.6151C430.994 70.9958 430.541 72.2329 429.591 73.1994L429.568 73.2214L429.546 73.2435C428.59 74.1272 427.396 74.5359 426.081 74.5359C424.766 74.5359 423.572 74.1327 422.621 73.2435L422.599 73.2214L422.572 73.1994C421.621 72.2329 421.168 70.9958 421.168 69.6151V67.9361C419.725 69.3997 418.089 70.6754 416.271 71.7689H416.26C412.612 73.9339 408.467 74.9943 403.869 74.9943C399.022 74.9943 394.639 73.8345 390.748 71.4928V71.5038ZM413.126 63.4405H413.137C415.674 61.9107 417.653 59.8341 419.09 57.1832V57.1721C420.587 54.4659 421.339 51.4394 421.339 48.0539C421.339 44.6684 420.582 41.5867 419.101 38.9468L419.09 38.9247C417.653 36.2737 415.674 34.1971 413.137 32.6784L413.104 32.6618C410.65 31.1044 407.826 30.3091 404.582 30.3091C401.338 30.3091 398.58 31.1044 396.054 32.6673L396.038 32.6784C393.495 34.2027 391.478 36.2848 389.975 38.9468C388.494 41.5812 387.736 44.6022 387.736 48.0539C387.736 51.5057 388.488 54.4604 389.98 57.1666C391.478 59.8286 393.495 61.9052 396.038 63.4295C398.563 64.9427 401.399 65.7104 404.582 65.7104C407.765 65.7104 410.667 64.9427 413.121 63.435L413.126 63.4405Z" fill="white"/>
<path d="M171.253 71.3272C171.685 72.2882 172.27 73.1001 173.05 73.68C173.851 74.2709 174.768 74.547 175.763 74.547C176.758 74.547 177.747 74.2819 178.582 73.702C179.405 73.1276 180.019 72.3048 180.455 71.3272L200.136 28.0282C200.667 26.9292 200.706 25.7584 200.28 24.6151C199.849 23.4001 199.02 22.4833 197.881 21.9034L197.843 21.8869L197.804 21.8703C196.643 21.3622 195.428 21.3236 194.228 21.7267C192.985 22.0967 192.078 22.9528 191.559 24.1678L175.78 59.5139L159.752 24.1071L159.73 24.0684C159.161 22.9914 158.31 22.1962 157.199 21.7599C156.011 21.2959 154.795 21.4119 153.656 21.9918C152.501 22.5441 151.611 23.4056 151.158 24.6041C150.716 25.7749 150.771 26.9679 151.285 28.1056L171.248 71.3328L171.253 71.3272Z" fill="white"/>
<path fill-rule="evenodd" clip-rule="evenodd" d="M320.741 61.817C323.084 65.8818 326.251 69.1182 330.23 71.504L330.247 71.5151C334.254 73.8512 338.753 75.0056 343.71 75.0056C348.668 75.0056 353.05 73.8512 356.996 71.5096C360.987 69.1845 364.126 66.0088 366.414 61.9937C368.757 57.9179 369.984 53.3615 370.111 48.3689V5.01474C370.111 3.61194 369.68 2.3472 368.686 1.40831C367.74 0.458388 366.541 0 365.198 0C363.855 0 362.656 0.452865 361.711 1.40831C360.716 2.3472 360.285 3.61194 360.285 5.01474V28.0836C358.632 26.4157 356.709 25.0018 354.521 23.842C351.066 21.9477 347.209 21.0144 342.986 21.0144C338.134 21.0144 333.745 22.2073 329.855 24.6152C325.986 26.9459 322.907 30.1547 320.63 34.2195L320.619 34.236C318.392 38.3229 317.298 42.9124 317.298 47.9658C317.298 53.0191 318.431 57.708 320.719 61.8005L320.73 61.817H320.741ZM358.229 38.9525C359.721 41.5924 360.473 44.5858 360.473 47.9658C360.473 51.3457 359.716 54.433 358.229 57.0729L358.218 57.095C356.781 59.7515 354.797 61.8612 352.243 63.4463C349.79 64.9485 346.96 65.7161 343.71 65.7161C340.46 65.7161 337.692 64.954 335.171 63.4407C332.618 61.8557 330.601 59.7404 329.103 57.0729C327.622 54.4385 326.865 51.4175 326.865 47.9658C326.865 44.514 327.622 41.5924 329.103 38.9525L329.114 38.9415C330.612 36.2187 332.629 34.109 335.16 32.5902C337.692 31.077 340.527 30.3093 343.71 30.3093C346.894 30.3093 349.79 31.077 352.249 32.5847H352.26C354.791 34.109 356.77 36.2076 358.212 38.9193L358.223 38.9525H358.229Z" fill="white"/>
<path d="M299.369 36.6549L299.325 36.6052C298.44 35.6166 298.064 34.3574 298.064 32.9767V27.5146C298.064 26.1395 298.446 24.8803 299.374 23.9303C300.336 22.9473 301.585 22.4999 302.972 22.4999C304.36 22.4999 305.493 22.9473 306.393 23.9303C307.372 24.8637 307.797 26.1229 307.797 27.5146V32.9767C307.797 34.3961 307.361 35.6663 306.393 36.6494C305.481 37.5827 304.282 37.9859 302.972 37.9859C301.662 37.9859 300.391 37.5938 299.419 36.6936L299.369 36.6494V36.6549Z" fill="white"/>
</svg>
