<svg width="360" height="360" viewBox="0 0 360 360" fill="none" xmlns="http://www.w3.org/2000/svg">
<g clip-path="url(#clip0_689_581)">
<circle cx="180" cy="180" r="180" fill="#37D5C7"/>
<path d="M111.363 108.266C106.964 100.657 109.575 90.9263 117.194 86.5328L179.275 50.7348C186.895 46.3413 196.638 48.9486 201.036 56.5583C205.435 64.1681 202.825 73.8987 195.205 78.2921L133.124 114.09C125.505 118.483 115.762 115.876 111.363 108.266Z" fill="white"/>
<path d="M155.21 303.443C150.812 295.833 153.421 286.104 161.041 281.71L223.122 245.912C230.741 241.518 240.483 244.125 244.883 251.735C249.282 259.345 246.671 269.076 239.052 273.469L176.971 309.267C169.351 313.66 159.609 311.053 155.21 303.443Z" fill="white"/>
<path d="M186.748 175.032C182.348 167.422 184.959 157.691 192.578 153.298L278.802 103.579C286.421 99.1851 296.163 101.792 300.563 109.402C304.961 117.012 302.351 126.743 294.732 131.136L208.508 180.855C200.889 185.249 191.146 182.642 186.748 175.032Z" fill="white"/>
<path d="M59.1369 248.611C54.7379 241.002 57.3485 231.271 64.9677 226.877L158.089 173.18C165.709 168.786 175.451 171.394 179.85 179.004C184.249 186.614 181.639 196.344 174.019 200.737L80.8977 254.435C73.2785 258.828 63.5359 256.221 59.1369 248.611Z" fill="white"/>
<path d="M200.787 111.816C196.387 104.206 198.998 94.4755 206.617 90.082L223.862 80.1382C231.481 75.7446 241.224 78.352 245.622 85.9617C250.022 93.5714 247.411 103.302 239.792 107.695L222.547 117.639C214.928 122.033 205.185 119.426 200.787 111.816Z" fill="white"/>
<path d="M251.778 247.757C247.378 240.147 249.989 230.417 257.608 226.024L274.853 216.079C282.472 211.686 292.215 214.293 296.614 221.903C301.013 229.513 298.402 239.243 290.783 243.637L273.538 253.581C265.919 257.974 256.176 255.367 251.778 247.757Z" fill="white"/>
<path d="M107.176 276.028C102.777 268.419 105.388 258.689 113.007 254.295L130.251 244.351C137.871 239.957 147.613 242.565 152.012 250.175C156.411 257.784 153.801 267.515 146.181 271.908L128.937 281.852C121.318 286.245 111.575 283.638 107.176 276.028Z" fill="white"/>
<path d="M59.6271 138.098C55.2282 130.488 57.8387 120.758 65.4579 116.364L82.7027 106.42C90.3218 102.027 100.064 104.634 104.464 112.244C108.862 119.854 106.252 129.585 98.6327 133.978L81.3879 143.922C73.7688 148.315 64.026 145.707 59.6271 138.098Z" fill="white"/>
<path d="M59.381 193.357C54.9821 185.747 57.5926 176.017 65.2118 171.623L172.13 109.971C179.749 105.578 189.491 108.185 193.89 115.794C198.289 123.404 195.679 133.135 188.06 137.529L81.1418 199.181C73.5226 203.574 63.78 200.966 59.381 193.357Z" fill="white"/>
<path d="M158.91 246.194C154.511 238.584 157.122 228.854 164.741 224.46L271.659 162.808C279.277 158.415 289.02 161.022 293.42 168.632C297.818 176.241 295.207 185.972 287.589 190.365L180.671 252.018C173.052 256.411 163.309 253.803 158.91 246.194Z" fill="white"/>
</g>
<defs>
<clipPath id="clip0_689_581">
<rect width="360" height="360" rx="180" fill="white"/>
</clipPath>
</defs>
</svg>
