<svg width="20" height="20" viewBox="0 0 20 20" fill="none" xmlns="http://www.w3.org/2000/svg">
<path opacity="0.4" d="M9.2908 0.36782C9.66079 0.151995 10.1183 0.151994 10.4883 0.367819L17.8556 4.6654C18.2206 4.87835 18.4451 5.26918 18.4451 5.69181V14.3083C18.4451 14.7309 18.2206 15.1217 17.8556 15.3347L10.4883 19.6323C10.1183 19.8481 9.66079 19.8481 9.2908 19.6323L1.92352 15.3347C1.55846 15.1217 1.33398 14.7309 1.33398 14.3083V5.69181C1.33398 5.26918 1.55846 4.87835 1.92352 4.6654L9.2908 0.36782Z" fill="url(#paint0_linear_962_37425)"/>
<g opacity="0.2">
<path d="M9.34944 16.7695L9.58948 16.3592L9.34944 16.7695C9.68305 16.9647 10.096 16.9647 10.4296 16.7695L15.4203 13.8494C15.7482 13.6575 15.9497 13.3062 15.9497 12.9263V7.07233C15.9497 6.69246 15.7482 6.34111 15.4203 6.14927L10.4296 3.22918C10.096 3.03399 9.68305 3.03399 9.34944 3.22918L4.35874 6.14927C4.03088 6.34111 3.82938 6.69246 3.82938 7.07233V12.9263C3.82938 13.3062 4.03088 13.6575 4.35874 13.8494L9.34944 16.7695Z" fill="url(#paint1_radial_962_37425)"/>
<path d="M9.34944 16.7695L9.58948 16.3592L9.34944 16.7695C9.68305 16.9647 10.096 16.9647 10.4296 16.7695L15.4203 13.8494C15.7482 13.6575 15.9497 13.3062 15.9497 12.9263V7.07233C15.9497 6.69246 15.7482 6.34111 15.4203 6.14927L10.4296 3.22918C10.096 3.03399 9.68305 3.03399 9.34944 3.22918L4.35874 6.14927C4.03088 6.34111 3.82938 6.69246 3.82938 7.07233V12.9263C3.82938 13.3062 4.03088 13.6575 4.35874 13.8494L9.34944 16.7695Z" fill="url(#paint2_radial_962_37425)" fill-opacity="0.29"/>
<path d="M9.34944 16.7695L9.58948 16.3592L9.34944 16.7695C9.68305 16.9647 10.096 16.9647 10.4296 16.7695L15.4203 13.8494C15.7482 13.6575 15.9497 13.3062 15.9497 12.9263V7.07233C15.9497 6.69246 15.7482 6.34111 15.4203 6.14927L10.4296 3.22918C10.096 3.03399 9.68305 3.03399 9.34944 3.22918L4.35874 6.14927C4.03088 6.34111 3.82938 6.69246 3.82938 7.07233V12.9263C3.82938 13.3062 4.03088 13.6575 4.35874 13.8494L9.34944 16.7695Z" fill="url(#paint3_linear_962_37425)" fill-opacity="0.2" style="mix-blend-mode:multiply"/>
<path d="M9.34944 16.7695L9.58948 16.3592L9.34944 16.7695C9.68305 16.9647 10.096 16.9647 10.4296 16.7695L15.4203 13.8494C15.7482 13.6575 15.9497 13.3062 15.9497 12.9263V7.07233C15.9497 6.69246 15.7482 6.34111 15.4203 6.14927L10.4296 3.22918C10.096 3.03399 9.68305 3.03399 9.34944 3.22918L4.35874 6.14927C4.03088 6.34111 3.82938 6.69246 3.82938 7.07233V12.9263C3.82938 13.3062 4.03088 13.6575 4.35874 13.8494L9.34944 16.7695Z" stroke="url(#paint4_linear_962_37425)" stroke-width="0.950623"/>
</g>
<path d="M9.81551 6.61445C9.89082 6.46185 10.1084 6.46185 10.1837 6.61445L11.1586 8.5898C11.1885 8.6504 11.2463 8.6924 11.3132 8.70212L13.4931 9.01888C13.6615 9.04335 13.7288 9.25029 13.6069 9.36907L12.0295 10.9067C11.9811 10.9538 11.959 11.0218 11.9705 11.0884L12.3428 13.2595C12.3716 13.4272 12.1956 13.5551 12.0449 13.476L10.0952 12.4509C10.0353 12.4194 9.96389 12.4194 9.90408 12.4509L7.95428 13.476C7.80366 13.5551 7.62762 13.4272 7.65639 13.2595L8.02877 11.0884C8.04019 11.0218 8.01811 10.9538 7.96972 10.9067L6.3923 9.36907C6.27045 9.25029 6.33769 9.04335 6.50609 9.01888L8.68602 8.70212C8.7529 8.6924 8.8107 8.6504 8.84061 8.5898L9.81551 6.61445Z" fill="white"/>
<path d="M10.6957 2.79614C10.1971 2.50599 9.58097 2.50599 9.08228 2.79614L4.09155 5.69984C3.59783 5.98709 3.2941 6.51521 3.2941 7.08641V12.9145C3.2941 13.4857 3.59783 14.0138 4.09155 14.3011L9.08228 17.2048C9.58097 17.4949 10.1971 17.4949 10.6957 17.2048L15.6865 14.3011C16.1802 14.0138 16.4839 13.4857 16.4839 12.9145V7.08641C16.4839 6.5152 16.1802 5.98709 15.6865 5.69984L10.6957 2.79614Z" stroke="url(#paint5_linear_962_37425)" stroke-width="0.118828"/>
<defs>
<linearGradient id="paint0_linear_962_37425" x1="4.60173" y1="1.38507" x2="12.3255" y2="18.9715" gradientUnits="userSpaceOnUse">
<stop stop-color="#A683FF" stop-opacity="0.8"/>
<stop offset="1" stop-color="#A683FF"/>
</linearGradient>
<radialGradient id="paint1_radial_962_37425" cx="0" cy="0" r="1" gradientUnits="userSpaceOnUse" gradientTransform="translate(9.88953 10.2885) rotate(90) scale(10.6307 9.19189)">
<stop stop-color="#A683FF"/>
<stop offset="1" stop-color="#A683FF"/>
</radialGradient>
<radialGradient id="paint2_radial_962_37425" cx="0" cy="0" r="1" gradientUnits="userSpaceOnUse" gradientTransform="translate(7.27949 7.79488) rotate(-48.4041) scale(6.58105 3.46958)">
<stop stop-color="#A683FF"/>
<stop offset="1" stop-color="#A683FF" stop-opacity="0"/>
</radialGradient>
<linearGradient id="paint3_linear_962_37425" x1="9.88953" y1="3.46387" x2="9.88953" y2="17.1131" gradientUnits="userSpaceOnUse">
<stop stop-color="#A683FF"/>
<stop offset="0.0001" stop-color="#A683FF" stop-opacity="0"/>
<stop offset="1" stop-color="#A683FF"/>
</linearGradient>
<linearGradient id="paint4_linear_962_37425" x1="9.88953" y1="3.46387" x2="9.88953" y2="17.1131" gradientUnits="userSpaceOnUse">
<stop stop-color="#A683FF"/>
<stop offset="1" stop-color="#A683FF" stop-opacity="0.5"/>
</linearGradient>
<linearGradient id="paint5_linear_962_37425" x1="8.58191" y1="2.39551" x2="11.1961" y2="17.9025" gradientUnits="userSpaceOnUse">
<stop stop-color="#A683FF" stop-opacity="0.6"/>
<stop offset="1" stop-color="#A683FF"/>
</linearGradient>
</defs>
</svg>
