<svg width="500" height="500" viewBox="0 0 500 500" fill="none" xmlns="http://www.w3.org/2000/svg">
<rect width="500" height="500" fill="#FFCC00"/>
<path d="M84.6414 248.809H101.76L96.7222 274.054C93.6072 276.262 90.0317 277.982 85.9957 279.201C81.9462 280.393 77.6123 280.989 72.9939 280.989C67.0348 280.989 61.7799 279.878 57.2292 277.684C52.7057 275.49 49.2115 272.416 46.7195 268.474C44.2275 264.506 42.9814 259.956 42.9814 254.823C42.9814 247.997 44.566 241.956 47.7488 236.674C50.918 231.365 55.3467 227.234 61.0214 224.268C66.7233 221.275 73.2648 219.772 80.6325 219.772C92.7675 219.772 101.611 223.605 107.178 231.257L93.0925 242.2C91.2506 239.857 89.2597 238.191 87.1334 237.216C84.9935 236.241 82.5286 235.753 79.7115 235.753C76.3121 235.753 73.3325 236.512 70.7728 238.029C68.2401 239.518 66.2899 241.604 64.922 244.313C63.5405 247.021 62.8634 250.109 62.8634 253.577C62.8634 257.017 64.001 259.779 66.2763 261.865C68.5787 263.964 71.7479 265.007 75.7568 265.007C77.7748 265.007 79.7115 264.736 81.5534 264.195L84.6414 248.809Z" fill="#0F0F0F"/>
<path d="M146.627 269.45H124.307L118.456 279.635H97.6533L134.925 221.127H154.319L168.188 279.635H148.577L146.627 269.45ZM143.864 255.202L141.047 240.25L132.433 255.202H143.864Z" fill="#0F0F0F"/>
<path d="M253.092 221.124L241.552 279.632H223.567L228.767 252.978L212.298 274.377H203.631L194.583 253.303L189.329 279.632H171.343L183.044 221.124H199.08L211.811 252.22L236.298 221.124H253.092Z" fill="#0F0F0F"/>
<path d="M279.195 236.023L277.84 242.849H302.598L299.727 257.043H274.915L273.398 264.735H302.76L299.727 279.633H251.078L262.78 221.125H310.345L307.365 236.023H279.195Z" fill="#0F0F0F"/>
<path d="M369.607 240.355C369.607 245.528 368.212 250.052 365.436 253.952C362.686 257.826 358.799 260.697 353.788 262.566L363.594 279.631H343.062L334.827 264.895H329.951L327.026 279.631H307.307L319.008 221.123H345.283C352.975 221.123 358.948 222.829 363.214 226.215C367.467 229.574 369.607 234.287 369.607 240.355ZM349.617 242.251C349.617 238.323 347.152 236.346 342.249 236.346H335.64L332.877 250.052H341.003C343.739 250.052 345.852 249.374 347.341 247.993C348.858 246.625 349.617 244.716 349.617 242.251Z" fill="#0F0F0F"/>
<path d="M420.248 233.257L406.867 244.796C410.361 245.879 413.097 247.694 415.047 250.213C416.998 252.705 417.973 255.658 417.973 259.044C417.973 263.201 416.673 266.953 414.072 270.312C411.499 273.643 407.964 276.257 403.454 278.167C398.931 280.036 393.892 280.984 388.34 280.984C384.033 280.984 379.943 280.469 376.042 279.467C372.169 278.465 368.756 276.921 365.749 274.862L374.688 261.156C376.922 262.565 379.347 263.635 381.947 264.353C384.575 265.084 387.148 265.436 389.64 265.436C392.376 265.436 394.475 265.003 395.924 264.136C397.36 263.269 398.091 262.023 398.091 260.398C398.091 258.055 396.141 256.877 392.24 256.877H384.168L386.552 244.796L396.791 236.02H376.042L379.022 221.122H422.686L420.248 233.257Z" fill="#0F0F0F"/>
<path d="M458 221.125L446.298 279.633H426.579L435.247 236.022H425.225L428.258 221.125H458Z" fill="#0F0F0F"/>
</svg>
