<svg width="56" height="56" viewBox="0 0 56 56" fill="none" xmlns="http://www.w3.org/2000/svg">
<rect width="56" height="56" rx="28" fill="#99FE5B"/>
<path d="M6.66333 15.1057L6.66333 40.8947C6.66333 45.5572 10.443 49.3369 15.1055 49.3369H40.8946C45.5571 49.3369 49.3368 45.5572 49.3368 40.8947V15.1057C49.3368 10.4432 45.5571 6.66346 40.8946 6.66346H15.1055C10.443 6.66346 6.66333 10.4432 6.66333 15.1057Z" fill="#99FE5B"/>
<path d="M29.2866 41.5706C32.8573 41.5706 36.2819 40.1522 38.8068 37.6273C41.3317 35.1023 42.7502 31.6778 42.7502 28.1071C42.7502 24.5363 41.3317 21.1118 38.8068 18.5869C36.2819 16.062 32.8574 14.6436 29.2866 14.6436V28.1071V41.5706Z" fill="#131313"/>
<path d="M23.3389 25.2344H18.0024V41.5704H23.3389V25.2344Z" fill="#131313"/>
<path d="M20.6441 21.612C22.5684 21.612 24.1284 20.0521 24.1284 18.1278C24.1284 16.2035 22.5684 14.6436 20.6441 14.6436C18.7199 14.6436 17.1599 16.2035 17.1599 18.1278C17.1599 20.0521 18.7199 21.612 20.6441 21.612Z" fill="#131313"/>
</svg>
