<svg width="628" height="628" viewBox="0 0 628 628" fill="none" xmlns="http://www.w3.org/2000/svg">
<rect width="628" height="628" fill="white"/>
<path d="M226.952 119.407C227.281 117.903 228.795 116.683 230.335 116.683H305.612C307.152 116.683 308.134 117.903 307.805 119.407L291.743 192.95C291.415 194.455 289.9 195.674 288.36 195.674H213.083C211.543 195.674 210.561 194.455 210.89 192.95L226.952 119.407Z" fill="#0000EE"/>
<path d="M324.533 119.407C324.862 117.903 326.376 116.683 327.916 116.683H453.378C471.855 116.683 483.638 131.317 479.696 149.369L435.674 350.933C435.345 352.437 433.831 353.656 432.291 353.656H360.957C359.417 353.656 357.903 354.876 357.574 356.38L341.512 429.924C341.184 431.428 342.165 432.648 343.705 432.648H415.039C416.579 432.648 417.561 433.867 417.232 435.371L401.171 508.915C400.842 510.419 399.327 511.639 397.788 511.639H322.511C320.971 511.639 319.989 510.419 320.317 508.915L336.379 435.371C336.708 433.867 335.726 432.648 334.186 432.648H258.909C257.369 432.648 256.388 431.428 256.716 429.924L272.778 356.38C273.107 354.876 274.621 353.656 276.161 353.656H351.438C352.978 353.656 354.492 352.437 354.821 350.933L385.16 212.017C387.131 202.991 381.24 195.674 372.001 195.674H310.664C309.125 195.674 308.143 194.455 308.471 192.95L324.533 119.407Z" fill="#0000EE"/>
<path d="M209.514 212.017C207.974 212.017 206.459 213.237 206.131 214.741L141.883 508.915C141.555 510.419 142.536 511.639 144.076 511.639H219.353C220.893 511.639 222.408 510.419 222.736 508.915L286.984 214.741C287.313 213.237 286.331 212.017 284.791 212.017H209.514Z" fill="#0000EE"/>
</svg>
